<svg width="99" height="99" viewBox="0 0 99 99" fill="none" xmlns="http://www.w3.org/2000/svg">
<g clip-path="url(#clip0_1385_318)">
<rect width="99" height="99" rx="49.5" fill="white"/>
<g filter="url(#filter0_dd_1385_318)">
<path d="M6.91515 31.3973C9.92581 16.8825 19.1893 8.79818 33.6388 6.35598C44.3203 4.55101 55.0058 4.52816 65.6694 6.40666C80.5472 9.02735 89.4911 17.5831 92.3404 32.3174C94.5417 43.7045 94.5763 55.213 92.3058 66.5894C89.26 81.0037 79.7575 89.9013 65.3613 92.3346C54.6798 94.1393 43.9943 94.1622 33.3307 92.2839C18.4529 89.663 9.46925 80.6801 6.62018 65.946C4.30659 54.4838 4.5292 42.9025 6.91515 31.3971V31.3973Z" fill="black"/>
</g>
<path d="M6.91515 31.3973C9.92581 16.8825 19.1893 8.79818 33.6388 6.35598C44.3203 4.55101 55.0058 4.52816 65.6694 6.40666C80.5472 9.02735 89.4911 17.5831 92.3404 32.3174C94.5417 43.7045 94.5763 55.213 92.3058 66.5894C89.26 81.0037 79.7575 89.9013 65.3613 92.3346C54.6798 94.1393 43.9943 94.1622 33.3307 92.2839C18.4529 89.663 9.46925 80.6801 6.62018 65.946C4.30659 54.4838 4.5292 42.9025 6.91515 31.3971V31.3973Z" fill="#2C8BE2"/>
<path fill-rule="evenodd" clip-rule="evenodd" d="M49.6236 74.3151C43.4677 74.3151 37.8487 72.0804 33.5077 68.3914C36.7 62.3655 42.7253 59.949 49.6236 59.949C56.5216 59.949 62.5471 62.3657 65.7392 68.3914C61.3985 72.0804 55.7796 74.3151 49.6236 74.3151ZM49.6236 20.7023C65.4632 20.7023 78.3448 33.5841 78.3448 49.4235C78.3448 65.2633 65.4632 78.1447 49.6236 78.1447C41.4735 78.1447 34.1103 74.7309 28.8787 69.262C28.9979 69.0274 30.6872 65.5896 30.6956 65.5992C34.6396 58.978 41.6399 56.1194 49.6236 56.1194C57.6073 56.1194 64.6075 58.978 68.5515 65.5992C72.2682 61.2509 74.5152 55.605 74.5152 49.4235C74.5152 35.6534 63.3934 24.5316 49.6236 24.5316C35.8537 24.5316 24.7319 35.6534 24.7319 49.4235C24.7319 52.3193 25.225 55.0974 26.1312 57.6793C24.9607 58.2235 23.8345 58.8466 22.7335 59.5155C21.5511 56.374 20.9023 52.9734 20.9023 49.4235C20.9023 33.5841 33.784 20.7023 49.6236 20.7023ZM42.2781 42.2561C42.2781 38.1644 45.6783 34.8339 49.9754 34.8339C54.272 34.8339 57.6723 38.1644 57.6723 42.2561C57.6723 46.3478 54.272 49.6783 49.9754 49.6783C45.6781 49.6783 42.2781 46.3478 42.2781 42.2561ZM60.9711 42.2561C60.9711 36.3276 56.0024 31.535 49.9754 31.535C43.9481 31.535 38.9792 36.3276 38.9792 42.2561C38.9792 48.1848 43.9481 52.9772 49.9754 52.9772C56.0024 52.9772 60.9709 48.1848 60.9709 42.2561" fill="white"/>
</g>
<rect x="3.5" y="3.5" width="92" height="92" rx="46" stroke="#2D1181" stroke-width="7"/>
<defs>
<filter id="filter0_dd_1385_318" x="-6" y="-2" width="111" height="110.69" filterUnits="userSpaceOnUse" color-interpolation-filters="sRGB">
<feFlood flood-opacity="0" result="BackgroundImageFix"/>
<feColorMatrix in="SourceAlpha" type="matrix" values="0 0 0 0 0 0 0 0 0 0 0 0 0 0 0 0 0 0 127 0" result="hardAlpha"/>
<feOffset dy="5"/>
<feGaussianBlur stdDeviation="4"/>
<feColorMatrix type="matrix" values="0 0 0 0 0 0 0 0 0 0 0 0 0 0 0 0 0 0 0.078125 0"/>
<feBlend mode="normal" in2="BackgroundImageFix" result="effect1_dropShadow_1385_318"/>
<feColorMatrix in="SourceAlpha" type="matrix" values="0 0 0 0 0 0 0 0 0 0 0 0 0 0 0 0 0 0 127 0" result="hardAlpha"/>
<feOffset dy="4"/>
<feGaussianBlur stdDeviation="5.5"/>
<feColorMatrix type="matrix" values="0 0 0 0 0 0 0 0 0 0 0 0 0 0 0 0 0 0 0.210824 0"/>
<feBlend mode="normal" in2="effect1_dropShadow_1385_318" result="effect2_dropShadow_1385_318"/>
<feBlend mode="normal" in="SourceGraphic" in2="effect2_dropShadow_1385_318" result="shape"/>
</filter>
<clipPath id="clip0_1385_318">
<rect width="99" height="99" rx="49.5" fill="white"/>
</clipPath>
</defs>
</svg>
