<svg width="114" height="17" viewBox="0 0 114 17" fill="none" xmlns="http://www.w3.org/2000/svg">
<path d="M3.77131 16H0.475852L5.49716 1.45455H9.46023L14.4744 16H11.179L7.53551 4.77841H7.42188L3.77131 16ZM3.56534 10.2827H11.3494V12.6832H3.56534V10.2827ZM23.1641 11.3551V5.09091H26.1896V16H23.2848V14.0185H23.1712C22.925 14.6577 22.5154 15.1714 21.9425 15.5597C21.3743 15.9479 20.6806 16.142 19.8615 16.142C19.1323 16.142 18.4908 15.9763 17.9368 15.6449C17.3828 15.3134 16.9496 14.8423 16.6371 14.2315C16.3293 13.6207 16.1731 12.8892 16.1683 12.0369V5.09091H19.1939V11.4972C19.1986 12.1411 19.3714 12.6501 19.7124 13.0241C20.0533 13.3982 20.5102 13.5852 21.0831 13.5852C21.4477 13.5852 21.7886 13.5024 22.1058 13.3366C22.4231 13.1662 22.6787 12.9152 22.8729 12.5838C23.0717 12.2524 23.1688 11.8428 23.1641 11.3551ZM34.4123 5.09091V7.36364H27.8427V5.09091H34.4123ZM29.3342 2.47727H32.3597V12.6477C32.3597 12.9271 32.4023 13.1449 32.4876 13.3011C32.5728 13.4527 32.6912 13.5592 32.8427 13.6207C32.9989 13.6823 33.1789 13.7131 33.3825 13.7131C33.5245 13.7131 33.6665 13.7012 33.8086 13.6776C33.9506 13.6491 34.0595 13.6278 34.1353 13.6136L34.6112 15.8651C34.4596 15.9124 34.2466 15.9669 33.9719 16.0284C33.6973 16.0947 33.3635 16.1349 32.9705 16.1491C32.2414 16.1776 31.6022 16.0805 31.0529 15.858C30.5084 15.6354 30.0846 15.2898 29.7816 14.821C29.4786 14.3523 29.3294 13.7604 29.3342 13.0455V2.47727ZM41.195 16.2131C40.0917 16.2131 39.1377 15.9787 38.3327 15.5099C37.5326 15.0365 36.9147 14.3783 36.479 13.5355C36.0434 12.688 35.8256 11.7055 35.8256 10.5881C35.8256 9.46117 36.0434 8.47633 36.479 7.63352C36.9147 6.78598 37.5326 6.12784 38.3327 5.65909C39.1377 5.18561 40.0917 4.94886 41.195 4.94886C42.2982 4.94886 43.2499 5.18561 44.0501 5.65909C44.855 6.12784 45.4753 6.78598 45.9109 7.63352C46.3465 8.47633 46.5643 9.46117 46.5643 10.5881C46.5643 11.7055 46.3465 12.688 45.9109 13.5355C45.4753 14.3783 44.855 15.0365 44.0501 15.5099C43.2499 15.9787 42.2982 16.2131 41.195 16.2131ZM41.2092 13.8693C41.7111 13.8693 42.1301 13.7273 42.4663 13.4432C42.8024 13.1544 43.0558 12.7614 43.2262 12.2642C43.4014 11.767 43.489 11.2012 43.489 10.5668C43.489 9.93229 43.4014 9.36648 43.2262 8.86932C43.0558 8.37216 42.8024 7.97917 42.4663 7.69034C42.1301 7.40151 41.7111 7.2571 41.2092 7.2571C40.7025 7.2571 40.2764 7.40151 39.9308 7.69034C39.5898 7.97917 39.3318 8.37216 39.1566 8.86932C38.9862 9.36648 38.9009 9.93229 38.9009 10.5668C38.9009 11.2012 38.9862 11.767 39.1566 12.2642C39.3318 12.7614 39.5898 13.1544 39.9308 13.4432C40.2764 13.7273 40.7025 13.8693 41.2092 13.8693ZM48.5316 16V5.09091H51.4151V7.01562H51.543C51.7702 6.37642 52.149 5.87216 52.6793 5.50284C53.2096 5.13352 53.8441 4.94886 54.5827 4.94886C55.3308 4.94886 55.9677 5.13589 56.4933 5.50994C57.0188 5.87926 57.3692 6.38116 57.5444 7.01562H57.658C57.8806 6.39062 58.283 5.8911 58.8654 5.51705C59.4525 5.13826 60.1462 4.94886 60.9464 4.94886C61.9644 4.94886 62.7906 5.2732 63.4251 5.92188C64.0643 6.56581 64.3839 7.47964 64.3839 8.66335V16H61.3654V9.25994C61.3654 8.65388 61.2044 8.19934 60.8825 7.89631C60.5605 7.59328 60.158 7.44176 59.6751 7.44176C59.1258 7.44176 58.6973 7.61695 58.3896 7.96733C58.0818 8.31297 57.9279 8.76989 57.9279 9.33807V16H54.9947V9.19602C54.9947 8.66098 54.8408 8.23485 54.533 7.91761C54.23 7.60038 53.8299 7.44176 53.3327 7.44176C52.9966 7.44176 52.6935 7.52699 52.4237 7.69744C52.1585 7.86316 51.9478 8.09754 51.7915 8.40057C51.6353 8.69886 51.5572 9.04924 51.5572 9.4517V16H48.5316ZM69.8846 16.206C69.1886 16.206 68.5683 16.0852 68.0238 15.8438C67.4793 15.5975 67.0484 15.2353 66.7312 14.7571C66.4187 14.2741 66.2624 13.6728 66.2624 12.9531C66.2624 12.3471 66.3737 11.8381 66.5962 11.4261C66.8188 11.0142 67.1218 10.6828 67.5053 10.4318C67.8888 10.1809 68.3245 9.99148 68.8121 9.86364C69.3046 9.7358 69.8207 9.64583 70.3604 9.59375C70.9949 9.52746 71.5063 9.46591 71.8945 9.40909C72.2828 9.34754 72.5645 9.25758 72.7397 9.1392C72.9149 9.02083 73.0025 8.84564 73.0025 8.61364V8.57102C73.0025 8.12121 72.8604 7.7732 72.5763 7.52699C72.297 7.28078 71.8993 7.15767 71.3832 7.15767C70.8387 7.15767 70.4054 7.27841 70.0835 7.51989C69.7615 7.75663 69.5484 8.05492 69.4442 8.41477L66.646 8.1875C66.788 7.52462 67.0674 6.9517 67.484 6.46875C67.9007 5.98106 68.4381 5.60701 69.0962 5.34659C69.7591 5.08144 70.5262 4.94886 71.3974 4.94886C72.0034 4.94886 72.5835 5.01989 73.1374 5.16193C73.6961 5.30398 74.1909 5.52415 74.6218 5.82244C75.0574 6.12074 75.4007 6.50426 75.6516 6.97301C75.9026 7.43703 76.0281 7.99337 76.0281 8.64205V16H73.1587V14.4872H73.0735C72.8983 14.8281 72.6639 15.1288 72.3704 15.3892C72.0768 15.6449 71.7241 15.8461 71.3121 15.9929C70.9002 16.1349 70.4244 16.206 69.8846 16.206ZM70.7511 14.1179C71.1961 14.1179 71.5891 14.0303 71.93 13.8551C72.271 13.6752 72.5385 13.4337 72.7326 13.1307C72.9267 12.8277 73.0238 12.4844 73.0238 12.1009V10.9432C72.9291 11.0047 72.7989 11.0616 72.6332 11.1136C72.4722 11.161 72.2899 11.206 72.0863 11.2486C71.8827 11.2865 71.6791 11.322 71.4755 11.3551C71.2719 11.3835 71.0872 11.4096 70.9215 11.4332C70.5664 11.4853 70.2563 11.5682 69.9911 11.6818C69.726 11.7955 69.52 11.9493 69.3732 12.1435C69.2264 12.3329 69.1531 12.5696 69.1531 12.8537C69.1531 13.2656 69.3022 13.5805 69.6005 13.7983C69.9035 14.0114 70.2871 14.1179 70.7511 14.1179ZM84.1779 5.09091V7.36364H77.6083V5.09091H84.1779ZM79.0998 2.47727H82.1254V12.6477C82.1254 12.9271 82.168 13.1449 82.2532 13.3011C82.3384 13.4527 82.4568 13.5592 82.6083 13.6207C82.7646 13.6823 82.9445 13.7131 83.1481 13.7131C83.2901 13.7131 83.4322 13.7012 83.5742 13.6776C83.7163 13.6491 83.8252 13.6278 83.9009 13.6136L84.3768 15.8651C84.2253 15.9124 84.0122 15.9669 83.7376 16.0284C83.4629 16.0947 83.1291 16.1349 82.7362 16.1491C82.007 16.1776 81.3678 16.0805 80.8185 15.858C80.274 15.6354 79.8503 15.2898 79.5472 14.821C79.2442 14.3523 79.0951 13.7604 79.0998 13.0455V2.47727ZM86.1488 16V5.09091H89.1744V16H86.1488ZM87.6687 3.68466C87.2189 3.68466 86.833 3.53551 86.511 3.23722C86.1938 2.93419 86.0352 2.57197 86.0352 2.15057C86.0352 1.7339 86.1938 1.37642 86.511 1.07812C86.833 0.775094 87.2189 0.623579 87.6687 0.623579C88.1185 0.623579 88.502 0.775094 88.8192 1.07812C89.1412 1.37642 89.3022 1.7339 89.3022 2.15057C89.3022 2.57197 89.1412 2.93419 88.8192 3.23722C88.502 3.53551 88.1185 3.68466 87.6687 3.68466ZM96.527 16.2131C95.4238 16.2131 94.4697 15.9787 93.6648 15.5099C92.8646 15.0365 92.2467 14.3783 91.8111 13.5355C91.3755 12.688 91.1577 11.7055 91.1577 10.5881C91.1577 9.46117 91.3755 8.47633 91.8111 7.63352C92.2467 6.78598 92.8646 6.12784 93.6648 5.65909C94.4697 5.18561 95.4238 4.94886 96.527 4.94886C97.6302 4.94886 98.5819 5.18561 99.3821 5.65909C100.187 6.12784 100.807 6.78598 101.243 7.63352C101.679 8.47633 101.896 9.46117 101.896 10.5881C101.896 11.7055 101.679 12.688 101.243 13.5355C100.807 14.3783 100.187 15.0365 99.3821 15.5099C98.5819 15.9787 97.6302 16.2131 96.527 16.2131ZM96.5412 13.8693C97.0431 13.8693 97.4621 13.7273 97.7983 13.4432C98.1345 13.1544 98.3878 12.7614 98.5582 12.2642C98.7334 11.767 98.821 11.2012 98.821 10.5668C98.821 9.93229 98.7334 9.36648 98.5582 8.86932C98.3878 8.37216 98.1345 7.97917 97.7983 7.69034C97.4621 7.40151 97.0431 7.2571 96.5412 7.2571C96.0346 7.2571 95.6084 7.40151 95.2628 7.69034C94.9219 7.97917 94.6638 8.37216 94.4886 8.86932C94.3182 9.36648 94.233 9.93229 94.233 10.5668C94.233 11.2012 94.3182 11.767 94.4886 12.2642C94.6638 12.7614 94.9219 13.1544 95.2628 13.4432C95.6084 13.7273 96.0346 13.8693 96.5412 13.8693ZM106.889 9.69318V16H103.864V5.09091H106.747V7.01562H106.875C107.116 6.38116 107.521 5.87926 108.089 5.50994C108.658 5.13589 109.347 4.94886 110.156 4.94886C110.914 4.94886 111.574 5.11458 112.138 5.44602C112.701 5.77746 113.139 6.25095 113.452 6.86648C113.764 7.47727 113.92 8.20644 113.92 9.05398V16H110.895V9.59375C110.9 8.92614 110.729 8.4053 110.384 8.03125C110.038 7.65246 109.562 7.46307 108.956 7.46307C108.549 7.46307 108.189 7.55066 107.876 7.72585C107.569 7.90104 107.327 8.15672 107.152 8.4929C106.982 8.82434 106.894 9.22443 106.889 9.69318Z" fill="#0000FF"/>
</svg>
