<svg width="128" height="45" viewBox="0 0 128 45" fill="none" xmlns="http://www.w3.org/2000/svg">
<path d="M0.264205 16V1.45455H6.08807C7.15814 1.45455 8.05066 1.61316 8.76562 1.9304C9.48059 2.24763 10.018 2.68797 10.3778 3.25142C10.7377 3.81013 10.9176 4.45407 10.9176 5.18324C10.9176 5.75142 10.804 6.25095 10.5767 6.68182C10.3494 7.10795 10.0369 7.45833 9.6392 7.73295C9.24621 8.00284 8.7964 8.1946 8.28977 8.30824V8.45028C8.84375 8.47396 9.36222 8.63021 9.84517 8.91903C10.3329 9.20786 10.7282 9.61269 11.0312 10.1335C11.3343 10.6496 11.4858 11.2652 11.4858 11.9801C11.4858 12.7519 11.294 13.4408 10.9105 14.0469C10.5317 14.6482 9.97064 15.1241 9.22727 15.4744C8.4839 15.8248 7.56771 16 6.47869 16H0.264205ZM3.33949 13.4858H5.84659C6.7036 13.4858 7.3286 13.3224 7.72159 12.9957C8.11458 12.6643 8.31108 12.224 8.31108 11.6747C8.31108 11.2723 8.21402 10.9171 8.01989 10.6094C7.82576 10.3016 7.54877 10.0601 7.18892 9.88494C6.83381 9.70975 6.41004 9.62216 5.91761 9.62216H3.33949V13.4858ZM3.33949 7.54119H5.61932C6.04072 7.54119 6.41477 7.4678 6.74148 7.32102C7.07292 7.16951 7.33333 6.95644 7.52273 6.68182C7.71686 6.4072 7.81392 6.07812 7.81392 5.6946C7.81392 5.16903 7.62689 4.74527 7.25284 4.4233C6.88352 4.10133 6.35795 3.94034 5.67614 3.94034H3.33949V7.54119ZM20.4258 11.3551V5.09091H23.4513V16H20.5465V14.0185H20.4329C20.1867 14.6577 19.7771 15.1714 19.2042 15.5597C18.636 15.9479 17.9424 16.142 17.1232 16.142C16.3941 16.142 15.7525 15.9763 15.1985 15.6449C14.6445 15.3134 14.2113 14.8423 13.8988 14.2315C13.591 13.6207 13.4348 12.8892 13.43 12.0369V5.09091H16.4556V11.4972C16.4603 12.1411 16.6332 12.6501 16.9741 13.0241C17.315 13.3982 17.7719 13.5852 18.3448 13.5852C18.7094 13.5852 19.0503 13.5024 19.3675 13.3366C19.6848 13.1662 19.9405 12.9152 20.1346 12.5838C20.3335 12.2524 20.4305 11.8428 20.4258 11.3551ZM25.8714 16V5.09091H28.897V16H25.8714ZM27.3913 3.68466C26.9415 3.68466 26.5556 3.53551 26.2337 3.23722C25.9164 2.93419 25.7578 2.57197 25.7578 2.15057C25.7578 1.7339 25.9164 1.37642 26.2337 1.07812C26.5556 0.775094 26.9415 0.623579 27.3913 0.623579C27.8411 0.623579 28.2247 0.775094 28.5419 1.07812C28.8639 1.37642 29.0249 1.7339 29.0249 2.15057C29.0249 2.57197 28.8639 2.93419 28.5419 3.23722C28.2247 3.53551 27.8411 3.68466 27.3913 3.68466ZM34.3462 1.45455V16H31.3207V1.45455H34.3462ZM40.7898 16.1776C39.9612 16.1776 39.2107 15.9645 38.5384 15.5384C37.8707 15.1075 37.3404 14.4754 36.9474 13.642C36.5592 12.804 36.3651 11.7765 36.3651 10.5597C36.3651 9.30966 36.5663 8.27036 36.9688 7.44176C37.3712 6.60843 37.9063 5.9858 38.5739 5.57386C39.2462 5.1572 39.9825 4.94886 40.7827 4.94886C41.3935 4.94886 41.9025 5.05303 42.3097 5.26136C42.7216 5.46496 43.053 5.72064 43.304 6.02841C43.5597 6.33144 43.7538 6.62973 43.8864 6.9233H43.9787V1.45455H46.9972V16H44.0142V14.2528H43.8864C43.7443 14.5559 43.5431 14.8565 43.2827 15.1548C43.027 15.4484 42.6932 15.6922 42.2812 15.8864C41.8741 16.0805 41.3769 16.1776 40.7898 16.1776ZM41.7486 13.7699C42.2363 13.7699 42.6482 13.6373 42.9844 13.3722C43.3253 13.1023 43.5857 12.7259 43.7656 12.2429C43.9503 11.7599 44.0426 11.1941 44.0426 10.5455C44.0426 9.89678 43.9527 9.33333 43.7727 8.85511C43.5928 8.37689 43.3324 8.00758 42.9915 7.74716C42.6506 7.48674 42.2363 7.35653 41.7486 7.35653C41.2514 7.35653 40.8324 7.49148 40.4915 7.76136C40.1506 8.03125 39.8925 8.4053 39.7173 8.88352C39.5421 9.36174 39.4545 9.91572 39.4545 10.5455C39.4545 11.1799 39.5421 11.741 39.7173 12.2287C39.8973 12.7116 40.1553 13.0904 40.4915 13.3651C40.8324 13.6349 41.2514 13.7699 41.7486 13.7699ZM49.4847 16V5.09091H52.5103V16H49.4847ZM51.0046 3.68466C50.5548 3.68466 50.1689 3.53551 49.8469 3.23722C49.5297 2.93419 49.3711 2.57197 49.3711 2.15057C49.3711 1.7339 49.5297 1.37642 49.8469 1.07812C50.1689 0.775094 50.5548 0.623579 51.0046 0.623579C51.4544 0.623579 51.8379 0.775094 52.1552 1.07812C52.4772 1.37642 52.6381 1.7339 52.6381 2.15057C52.6381 2.57197 52.4772 2.93419 52.1552 3.23722C51.8379 3.53551 51.4544 3.68466 51.0046 3.68466ZM57.9595 9.69318V16H54.9339V5.09091H57.8175V7.01562H57.9453C58.1868 6.38116 58.5916 5.87926 59.1598 5.50994C59.728 5.13589 60.4169 4.94886 61.2266 4.94886C61.9841 4.94886 62.6446 5.11458 63.2081 5.44602C63.7715 5.77746 64.2095 6.25095 64.522 6.86648C64.8345 7.47727 64.9908 8.20644 64.9908 9.05398V16H61.9652V9.59375C61.9699 8.92614 61.7995 8.4053 61.4538 8.03125C61.1082 7.65246 60.6323 7.46307 60.0263 7.46307C59.6191 7.46307 59.2592 7.55066 58.9467 7.72585C58.639 7.90104 58.3975 8.15672 58.2223 8.4929C58.0518 8.82434 57.9643 9.22443 57.9595 9.69318ZM72.2901 20.3182C71.31 20.3182 70.4696 20.1832 69.7688 19.9134C69.0728 19.6482 68.5188 19.286 68.1069 18.8267C67.695 18.3674 67.4274 17.8513 67.3043 17.2784L70.1026 16.902C70.1879 17.1198 70.3228 17.3234 70.5075 17.5128C70.6921 17.7022 70.936 17.8537 71.239 17.9673C71.5468 18.0857 71.9208 18.1449 72.3612 18.1449C73.0193 18.1449 73.5614 17.9839 73.9876 17.6619C74.4184 17.3447 74.6339 16.812 74.6339 16.0639V14.0682H74.506C74.3735 14.3712 74.1746 14.6577 73.9094 14.9276C73.6443 15.1974 73.3034 15.4176 72.8867 15.5881C72.4701 15.7585 71.9729 15.8438 71.3952 15.8438C70.5761 15.8438 69.8304 15.6544 69.158 15.2756C68.4904 14.892 67.9577 14.3073 67.56 13.5213C67.167 12.7306 66.9705 11.7315 66.9705 10.5241C66.9705 9.28835 67.1718 8.25616 67.5742 7.42756C67.9767 6.59896 68.5117 5.97869 69.1793 5.56676C69.8517 5.15483 70.5879 4.94886 71.3881 4.94886C71.9989 4.94886 72.5103 5.05303 72.9222 5.26136C73.3342 5.46496 73.6656 5.72064 73.9165 6.02841C74.1722 6.33144 74.3687 6.62973 74.506 6.9233H74.6197V5.09091H77.6239V16.1065C77.6239 17.0346 77.3967 17.8111 76.9421 18.4361C76.4876 19.0611 75.8578 19.5298 75.0529 19.8423C74.2527 20.1596 73.3318 20.3182 72.2901 20.3182ZM72.354 13.571C72.8417 13.571 73.2537 13.4503 73.5898 13.2088C73.9308 12.9626 74.1912 12.6122 74.3711 12.1577C74.5558 11.6984 74.6481 11.1491 74.6481 10.5099C74.6481 9.87074 74.5581 9.31676 74.3782 8.84801C74.1983 8.37453 73.9379 8.00758 73.5969 7.74716C73.256 7.48674 72.8417 7.35653 72.354 7.35653C71.8569 7.35653 71.4379 7.49148 71.0969 7.76136C70.756 8.02651 70.498 8.39583 70.3228 8.86932C70.1476 9.3428 70.06 9.88968 70.06 10.5099C70.06 11.1397 70.1476 11.6842 70.3228 12.1435C70.5027 12.598 70.7608 12.9508 71.0969 13.2017C71.4379 13.4479 71.8569 13.571 72.354 13.571ZM0.264205 25.4545H4.05682L8.0625 35.2273H8.23295L12.2386 25.4545H16.0312V40H13.0483V30.5327H12.9276L9.16335 39.929H7.1321L3.3679 30.4972H3.24716V40H0.264205V25.4545ZM21.619 40.206C20.9229 40.206 20.3027 40.0852 19.7582 39.8438C19.2137 39.5975 18.7828 39.2353 18.4656 38.7571C18.1531 38.2741 17.9968 37.6728 17.9968 36.9531C17.9968 36.3471 18.1081 35.8381 18.3306 35.4261C18.5531 35.0142 18.8562 34.6828 19.2397 34.4318C19.6232 34.1809 20.0588 33.9915 20.5465 33.8636C21.0389 33.7358 21.555 33.6458 22.0948 33.5938C22.7293 33.5275 23.2406 33.4659 23.6289 33.4091C24.0172 33.3475 24.2989 33.2576 24.4741 33.1392C24.6493 33.0208 24.7369 32.8456 24.7369 32.6136V32.571C24.7369 32.1212 24.5948 31.7732 24.3107 31.527C24.0314 31.2808 23.6336 31.1577 23.1175 31.1577C22.573 31.1577 22.1398 31.2784 21.8178 31.5199C21.4959 31.7566 21.2828 32.0549 21.1786 32.4148L18.3803 32.1875C18.5224 31.5246 18.8017 30.9517 19.2184 30.4688C19.6351 29.9811 20.1725 29.607 20.8306 29.3466C21.4935 29.0814 22.2605 28.9489 23.1317 28.9489C23.7378 28.9489 24.3178 29.0199 24.8718 29.1619C25.4305 29.304 25.9253 29.5241 26.3562 29.8224C26.7918 30.1207 27.1351 30.5043 27.386 30.973C27.637 31.437 27.7624 31.9934 27.7624 32.642V40H24.8931V38.4872H24.8079C24.6327 38.8281 24.3983 39.1288 24.1048 39.3892C23.8112 39.6449 23.4585 39.8461 23.0465 39.9929C22.6346 40.1349 22.1587 40.206 21.619 40.206ZM22.4854 38.1179C22.9305 38.1179 23.3235 38.0303 23.6644 37.8551C24.0053 37.6752 24.2728 37.4337 24.467 37.1307C24.6611 36.8277 24.7582 36.4844 24.7582 36.1009V34.9432C24.6635 35.0047 24.5333 35.0616 24.3675 35.1136C24.2066 35.161 24.0243 35.206 23.8207 35.2486C23.6171 35.2865 23.4135 35.322 23.2099 35.3551C23.0063 35.3835 22.8216 35.4096 22.6559 35.4332C22.3008 35.4853 21.9906 35.5682 21.7255 35.6818C21.4603 35.7955 21.2544 35.9493 21.1076 36.1435C20.9608 36.3329 20.8874 36.5696 20.8874 36.8537C20.8874 37.2656 21.0366 37.5805 21.3349 37.7983C21.6379 38.0114 22.0214 38.1179 22.4854 38.1179ZM33.1353 33.6932V40H30.1097V29.0909H32.9933V31.0156H33.1211C33.3626 30.3812 33.7674 29.8793 34.3356 29.5099C34.9038 29.1359 35.5927 28.9489 36.4023 28.9489C37.1599 28.9489 37.8204 29.1146 38.3839 29.446C38.9473 29.7775 39.3853 30.2509 39.6978 30.8665C40.0103 31.4773 40.1665 32.2064 40.1665 33.054V40H37.141V33.5938C37.1457 32.9261 36.9753 32.4053 36.6296 32.0312C36.284 31.6525 35.8081 31.4631 35.2021 31.4631C34.7949 31.4631 34.435 31.5507 34.1225 31.7259C33.8147 31.901 33.5733 32.1567 33.3981 32.4929C33.2276 32.8243 33.14 33.2244 33.1353 33.6932ZM45.6619 40.206C44.9659 40.206 44.3456 40.0852 43.8011 39.8438C43.2566 39.5975 42.8258 39.2353 42.5085 38.7571C42.196 38.2741 42.0398 37.6728 42.0398 36.9531C42.0398 36.3471 42.151 35.8381 42.3736 35.4261C42.5961 35.0142 42.8991 34.6828 43.2827 34.4318C43.6662 34.1809 44.1018 33.9915 44.5895 33.8636C45.0819 33.7358 45.598 33.6458 46.1378 33.5938C46.7723 33.5275 47.2836 33.4659 47.6719 33.4091C48.0601 33.3475 48.3419 33.2576 48.517 33.1392C48.6922 33.0208 48.7798 32.8456 48.7798 32.6136V32.571C48.7798 32.1212 48.6378 31.7732 48.3537 31.527C48.0743 31.2808 47.6766 31.1577 47.1605 31.1577C46.616 31.1577 46.1828 31.2784 45.8608 31.5199C45.5388 31.7566 45.3258 32.0549 45.2216 32.4148L42.4233 32.1875C42.5653 31.5246 42.8447 30.9517 43.2614 30.4688C43.678 29.9811 44.2154 29.607 44.8736 29.3466C45.5365 29.0814 46.3035 28.9489 47.1747 28.9489C47.7808 28.9489 48.3608 29.0199 48.9148 29.1619C49.4735 29.304 49.9683 29.5241 50.3991 29.8224C50.8348 30.1207 51.178 30.5043 51.429 30.973C51.6799 31.437 51.8054 31.9934 51.8054 32.642V40H48.9361V38.4872H48.8509C48.6757 38.8281 48.4413 39.1288 48.1477 39.3892C47.8542 39.6449 47.5014 39.8461 47.0895 39.9929C46.6776 40.1349 46.2017 40.206 45.6619 40.206ZM46.5284 38.1179C46.9735 38.1179 47.3665 38.0303 47.7074 37.8551C48.0483 37.6752 48.3158 37.4337 48.5099 37.1307C48.7041 36.8277 48.8011 36.4844 48.8011 36.1009V34.9432C48.7064 35.0047 48.5762 35.0616 48.4105 35.1136C48.2495 35.161 48.0672 35.206 47.8636 35.2486C47.66 35.2865 47.4564 35.322 47.2528 35.3551C47.0492 35.3835 46.8646 35.4096 46.6989 35.4332C46.3438 35.4853 46.0336 35.5682 45.7685 35.6818C45.5033 35.7955 45.2973 35.9493 45.1506 36.1435C45.0038 36.3329 44.9304 36.5696 44.9304 36.8537C44.9304 37.2656 45.0795 37.5805 45.3778 37.7983C45.6809 38.0114 46.0644 38.1179 46.5284 38.1179ZM59.0675 44.3182C58.0874 44.3182 57.2469 44.1832 56.5462 43.9134C55.8501 43.6482 55.2962 43.286 54.8842 42.8267C54.4723 42.3674 54.2048 41.8513 54.0817 41.2784L56.88 40.902C56.9652 41.1198 57.1001 41.3234 57.2848 41.5128C57.4695 41.7022 57.7133 41.8537 58.0163 41.9673C58.3241 42.0857 58.6982 42.1449 59.1385 42.1449C59.7966 42.1449 60.3388 41.9839 60.7649 41.6619C61.1958 41.3447 61.4112 40.812 61.4112 40.0639V38.0682H61.2834C61.1508 38.3712 60.9519 38.6577 60.6868 38.9276C60.4216 39.1974 60.0807 39.4176 59.6641 39.5881C59.2474 39.7585 58.7502 39.8438 58.1726 39.8438C57.3535 39.8438 56.6077 39.6544 55.9354 39.2756C55.2678 38.892 54.7351 38.3073 54.3374 37.5213C53.9444 36.7306 53.7479 35.7315 53.7479 34.5241C53.7479 33.2884 53.9491 32.2562 54.3516 31.4276C54.754 30.599 55.2891 29.9787 55.9567 29.5668C56.629 29.1548 57.3653 28.9489 58.1655 28.9489C58.7763 28.9489 59.2876 29.053 59.6996 29.2614C60.1115 29.465 60.4429 29.7206 60.6939 30.0284C60.9496 30.3314 61.1461 30.6297 61.2834 30.9233H61.397V29.0909H64.4013V40.1065C64.4013 41.0346 64.174 41.8111 63.7195 42.4361C63.2649 43.0611 62.6352 43.5298 61.8303 43.8423C61.0301 44.1596 60.1091 44.3182 59.0675 44.3182ZM59.1314 37.571C59.6191 37.571 60.031 37.4503 60.3672 37.2088C60.7081 36.9626 60.9685 36.6122 61.1484 36.1577C61.3331 35.6984 61.4254 35.1491 61.4254 34.5099C61.4254 33.8707 61.3355 33.3168 61.1555 32.848C60.9756 32.3745 60.7152 32.0076 60.3743 31.7472C60.0334 31.4867 59.6191 31.3565 59.1314 31.3565C58.6342 31.3565 58.2152 31.4915 57.8743 31.7614C57.5334 32.0265 57.2753 32.3958 57.1001 32.8693C56.925 33.3428 56.8374 33.8897 56.8374 34.5099C56.8374 35.1397 56.925 35.6842 57.1001 36.1435C57.2801 36.598 57.5381 36.9508 57.8743 37.2017C58.2152 37.4479 58.6342 37.571 59.1314 37.571ZM71.7805 40.2131C70.6584 40.2131 69.6925 39.9858 68.8828 39.5312C68.0779 39.072 67.4576 38.4233 67.022 37.5852C66.5864 36.7424 66.3686 35.7457 66.3686 34.5952C66.3686 33.473 66.5864 32.4882 67.022 31.6406C67.4576 30.7931 68.0708 30.1326 68.8615 29.6591C69.657 29.1856 70.5897 28.9489 71.6598 28.9489C72.3795 28.9489 73.0495 29.0649 73.6697 29.2969C74.2947 29.5241 74.8393 29.8674 75.3033 30.3267C75.772 30.786 76.1366 31.3636 76.397 32.0597C76.6574 32.7509 76.7876 33.5606 76.7876 34.4886V35.3196H67.576V33.4446H73.9396C73.9396 33.009 73.8449 32.6231 73.6555 32.2869C73.4661 31.9508 73.2034 31.688 72.8672 31.4986C72.5357 31.3045 72.1499 31.2074 71.7095 31.2074C71.2502 31.2074 70.843 31.3139 70.4879 31.527C70.1375 31.7353 69.8629 32.017 69.6641 32.3722C69.4652 32.7225 69.3634 33.1132 69.3587 33.544V35.3267C69.3587 35.8665 69.4581 36.3329 69.657 36.7259C69.8606 37.1188 70.147 37.4219 70.5163 37.6349C70.8857 37.848 71.3236 37.9545 71.8303 37.9545C72.1664 37.9545 72.4742 37.9072 72.7536 37.8125C73.0329 37.7178 73.272 37.5758 73.4709 37.3864C73.6697 37.197 73.8213 36.965 73.9254 36.6903L76.7237 36.875C76.5817 37.5473 76.2905 38.1345 75.8501 38.6364C75.4145 39.1335 74.8511 39.5218 74.1598 39.8011C73.4732 40.0758 72.6802 40.2131 71.7805 40.2131ZM78.7621 40V29.0909H81.6456V31.0156H81.7734C82.0007 30.3764 82.3795 29.8722 82.9098 29.5028C83.4401 29.1335 84.0746 28.9489 84.8132 28.9489C85.5613 28.9489 86.1982 29.1359 86.7237 29.5099C87.2493 29.8793 87.5997 30.3812 87.7749 31.0156H87.8885C88.111 30.3906 88.5135 29.8911 89.0959 29.517C89.683 29.1383 90.3767 28.9489 91.1768 28.9489C92.1948 28.9489 93.0211 29.2732 93.6555 29.9219C94.2947 30.5658 94.6143 31.4796 94.6143 32.6634V40H91.5959V33.2599C91.5959 32.6539 91.4349 32.1993 91.1129 31.8963C90.791 31.5933 90.3885 31.4418 89.9055 31.4418C89.3563 31.4418 88.9278 31.617 88.62 31.9673C88.3123 32.313 88.1584 32.7699 88.1584 33.3381V40H85.2251V33.196C85.2251 32.661 85.0713 32.2348 84.7635 31.9176C84.4605 31.6004 84.0604 31.4418 83.5632 31.4418C83.227 31.4418 82.924 31.527 82.6541 31.6974C82.389 31.8632 82.1783 32.0975 82.022 32.4006C81.8658 32.6989 81.7876 33.0492 81.7876 33.4517V40H78.7621ZM101.976 40.2131C100.854 40.2131 99.8878 39.9858 99.0781 39.5312C98.2732 39.072 97.6529 38.4233 97.2173 37.5852C96.7817 36.7424 96.5639 35.7457 96.5639 34.5952C96.5639 33.473 96.7817 32.4882 97.2173 31.6406C97.6529 30.7931 98.2661 30.1326 99.0568 29.6591C99.8523 29.1856 100.785 28.9489 101.855 28.9489C102.575 28.9489 103.245 29.0649 103.865 29.2969C104.49 29.5241 105.035 29.8674 105.499 30.3267C105.967 30.786 106.332 31.3636 106.592 32.0597C106.853 32.7509 106.983 33.5606 106.983 34.4886V35.3196H97.7713V33.4446H104.135C104.135 33.009 104.04 32.6231 103.851 32.2869C103.661 31.9508 103.399 31.688 103.062 31.4986C102.731 31.3045 102.345 31.2074 101.905 31.2074C101.446 31.2074 101.038 31.3139 100.683 31.527C100.333 31.7353 100.058 32.017 99.8594 32.3722C99.6605 32.7225 99.5587 33.1132 99.554 33.544V35.3267C99.554 35.8665 99.6534 36.3329 99.8523 36.7259C100.056 37.1188 100.342 37.4219 100.712 37.6349C101.081 37.848 101.519 37.9545 102.026 37.9545C102.362 37.9545 102.67 37.9072 102.949 37.8125C103.228 37.7178 103.467 37.5758 103.666 37.3864C103.865 37.197 104.017 36.965 104.121 36.6903L106.919 36.875C106.777 37.5473 106.486 38.1345 106.045 38.6364C105.61 39.1335 105.046 39.5218 104.355 39.8011C103.669 40.0758 102.875 40.2131 101.976 40.2131ZM111.983 33.6932V40H108.957V29.0909H111.841V31.0156H111.969C112.21 30.3812 112.615 29.8793 113.183 29.5099C113.751 29.1359 114.44 28.9489 115.25 28.9489C116.008 28.9489 116.668 29.1146 117.232 29.446C117.795 29.7775 118.233 30.2509 118.545 30.8665C118.858 31.4773 119.014 32.2064 119.014 33.054V40H115.989V33.5938C115.993 32.9261 115.823 32.4053 115.477 32.0312C115.132 31.6525 114.656 31.4631 114.05 31.4631C113.643 31.4631 113.283 31.5507 112.97 31.7259C112.662 31.901 112.421 32.1567 112.246 32.4929C112.075 32.8243 111.988 33.2244 111.983 33.6932ZM127.201 29.0909V31.3636H120.632V29.0909H127.201ZM122.123 26.4773H125.149V36.6477C125.149 36.9271 125.191 37.1449 125.277 37.3011C125.362 37.4527 125.48 37.5592 125.632 37.6207C125.788 37.6823 125.968 37.7131 126.172 37.7131C126.314 37.7131 126.456 37.7012 126.598 37.6776C126.74 37.6491 126.849 37.6278 126.924 37.6136L127.4 39.8651C127.249 39.9124 127.036 39.9669 126.761 40.0284C126.486 40.0947 126.153 40.1349 125.76 40.1491C125.03 40.1776 124.391 40.0805 123.842 39.858C123.297 39.6354 122.874 39.2898 122.571 38.821C122.268 38.3523 122.118 37.7604 122.123 37.0455V26.4773Z" fill="#FCC60E"/>
</svg>
