<svg width="64" height="64" viewBox="0 0 64 64" fill="none" xmlns="http://www.w3.org/2000/svg">
<path d="M54.3494 9.65063C51.4333 6.63141 47.9451 4.22317 44.0884 2.56644C40.2317 0.909711 36.0836 0.0376675 31.8862 0.00119355C27.6889 -0.0352804 23.5263 0.764546 19.6413 2.354C15.7564 3.94346 12.2269 6.29072 9.25881 9.25881C6.29072 12.2269 3.94346 15.7564 2.354 19.6413C0.764546 23.5263 -0.0352804 27.6889 0.00119355 31.8862C0.0376675 36.0836 0.909711 40.2317 2.56644 44.0884C4.22317 47.9451 6.63141 51.4333 9.65063 54.3494C12.5667 57.3686 16.0549 59.7768 19.9116 61.4336C23.7683 63.0903 27.9164 63.9623 32.1138 63.9988C36.3111 64.0353 40.4737 63.2355 44.3587 61.646C48.2436 60.0565 51.7731 57.7093 54.7412 54.7412C57.7093 51.7731 60.0565 48.2436 61.646 44.3587C63.2355 40.4737 64.0353 36.3111 63.9988 32.1138C63.9623 27.9164 63.0903 23.7683 61.4336 19.9116C59.7768 16.0549 57.3686 12.5667 54.3494 9.65063ZM46.8796 42.4097C47.1815 42.7013 47.4223 43.0501 47.588 43.4358C47.7536 43.8215 47.8409 44.2363 47.8445 44.656C47.8482 45.0757 47.7682 45.492 47.6092 45.8805C47.4503 46.269 47.2155 46.6219 46.9187 46.9187C46.6219 47.2155 46.269 47.4503 45.8805 47.6092C45.492 47.7682 45.0757 47.8482 44.656 47.8445C44.2363 47.8409 43.8215 47.7536 43.4358 47.588C43.0501 47.4223 42.7013 47.1815 42.4097 46.8796L32 36.4699L21.5903 46.8796C20.9941 47.4554 20.1956 47.774 19.3668 47.7668C18.5379 47.7596 17.7451 47.4272 17.159 46.8411C16.5728 46.2549 16.2404 45.4621 16.2332 44.6332C16.226 43.8044 16.5446 43.0059 17.1204 42.4097L27.5301 32L17.1204 21.5903C16.5446 20.9941 16.226 20.1956 16.2332 19.3668C16.2404 18.5379 16.5728 17.7451 17.159 17.159C17.7451 16.5728 18.5379 16.2404 19.3668 16.2332C20.1956 16.226 20.9941 16.5446 21.5903 17.1204L32 27.5301L42.4097 17.1204C43.0059 16.5446 43.8044 16.226 44.6332 16.2332C45.4621 16.2404 46.2549 16.5728 46.8411 17.159C47.4272 17.7451 47.7596 18.5379 47.7668 19.3668C47.774 20.1956 47.4554 20.9941 46.8796 21.5903L36.4699 32L46.8796 42.4097Z" fill="#B2B1FF"/>
<path d="M36.5359 32L47.0995 21.4364C47.6838 20.8314 48.0072 20.0211 47.9999 19.18C47.9926 18.3389 47.6552 17.5343 47.0604 16.9396C46.4657 16.3448 45.6611 16.0074 44.82 16.0001C43.9789 15.9928 43.1686 16.3162 42.5636 16.9005L32 27.4641L21.4364 16.9005C20.8314 16.3162 20.0211 15.9928 19.18 16.0001C18.3389 16.0074 17.5343 16.3448 16.9396 16.9396C16.3448 17.5343 16.0074 18.3389 16.0001 19.18C15.9928 20.0211 16.3162 20.8314 16.9005 21.4364L27.4641 32L16.9005 42.5636C16.3162 43.1686 15.9928 43.9789 16.0001 44.82C16.0074 45.6611 16.3448 46.4657 16.9396 47.0604C17.5343 47.6552 18.3389 47.9926 19.18 47.9999C20.0211 48.0072 20.8314 47.6838 21.4364 47.0995L32 36.5359L42.5636 47.0995C43.1686 47.6838 43.9789 48.0072 44.82 47.9999C45.6611 47.9926 46.4657 47.6552 47.0604 47.0604C47.6552 46.4657 47.9926 45.6611 47.9999 44.82C48.0072 43.9789 47.6838 43.1686 47.0995 42.5636L36.5359 32Z" fill="#6563FF"/>
</svg>
