<svg width="85" height="40" viewBox="0 0 85 40" fill="none" xmlns="http://www.w3.org/2000/svg">
<path d="M14.098 5.54688H10.9872C10.9304 5.14441 10.8144 4.78693 10.6392 4.47443C10.464 4.1572 10.2391 3.88731 9.96449 3.66477C9.68987 3.44223 9.37263 3.27178 9.01278 3.15341C8.65767 3.03504 8.27178 2.97585 7.85511 2.97585C7.10227 2.97585 6.4465 3.16288 5.88778 3.53693C5.32907 3.90625 4.89583 4.44602 4.58807 5.15625C4.2803 5.86174 4.12642 6.71875 4.12642 7.72727C4.12642 8.7642 4.2803 9.63542 4.58807 10.3409C4.90057 11.0464 5.33617 11.5791 5.89489 11.9389C6.4536 12.2988 7.09991 12.4787 7.83381 12.4787C8.24574 12.4787 8.62689 12.4242 8.97727 12.3153C9.33239 12.2064 9.64725 12.0478 9.92188 11.8395C10.1965 11.6264 10.4238 11.3684 10.6037 11.0653C10.7884 10.7623 10.9162 10.4167 10.9872 10.0284L14.098 10.0426C14.0175 10.7102 13.8163 11.3542 13.4943 11.9744C13.1771 12.59 12.7486 13.1416 12.2088 13.6293C11.6738 14.1122 11.0346 14.4957 10.2912 14.7798C9.55256 15.0592 8.71686 15.1989 7.78409 15.1989C6.48674 15.1989 5.3267 14.9053 4.30398 14.3182C3.28598 13.7311 2.48106 12.8812 1.8892 11.7685C1.30208 10.6558 1.00852 9.30871 1.00852 7.72727C1.00852 6.1411 1.30682 4.79167 1.90341 3.67898C2.5 2.56629 3.30966 1.71875 4.33239 1.13636C5.35511 0.549242 6.50568 0.255681 7.78409 0.255681C8.62689 0.255681 9.40814 0.374053 10.1278 0.610795C10.8523 0.847538 11.4938 1.19318 12.0526 1.64773C12.6113 2.09754 13.0658 2.64915 13.4162 3.30256C13.7713 3.95597 13.9986 4.70407 14.098 5.54688ZM19.272 0.454545V15H16.2464V0.454545H19.272ZM26.6246 15.2131C25.5214 15.2131 24.5674 14.9787 23.7624 14.5099C22.9622 14.0365 22.3443 13.3783 21.9087 12.5355C21.4731 11.688 21.2553 10.7055 21.2553 9.58807C21.2553 8.46117 21.4731 7.47633 21.9087 6.63352C22.3443 5.78598 22.9622 5.12784 23.7624 4.65909C24.5674 4.18561 25.5214 3.94886 26.6246 3.94886C27.7279 3.94886 28.6796 4.18561 29.4798 4.65909C30.2847 5.12784 30.9049 5.78598 31.3406 6.63352C31.7762 7.47633 31.994 8.46117 31.994 9.58807C31.994 10.7055 31.7762 11.688 31.3406 12.5355C30.9049 13.3783 30.2847 14.0365 29.4798 14.5099C28.6796 14.9787 27.7279 15.2131 26.6246 15.2131ZM26.6388 12.8693C27.1407 12.8693 27.5598 12.7273 27.896 12.4432C28.2321 12.1544 28.4854 11.7614 28.6559 11.2642C28.8311 10.767 28.9187 10.2012 28.9187 9.56676C28.9187 8.93229 28.8311 8.36648 28.6559 7.86932C28.4854 7.37216 28.2321 6.97917 27.896 6.69034C27.5598 6.40151 27.1407 6.2571 26.6388 6.2571C26.1322 6.2571 25.7061 6.40151 25.3604 6.69034C25.0195 6.97917 24.7615 7.37216 24.5863 7.86932C24.4158 8.36648 24.3306 8.93229 24.3306 9.56676C24.3306 10.2012 24.4158 10.767 24.5863 11.2642C24.7615 11.7614 25.0195 12.1544 25.3604 12.4432C25.7061 12.7273 26.1322 12.8693 26.6388 12.8693ZM40.957 10.3551V4.09091H43.9826V15H41.0778V13.0185H40.9641C40.7179 13.6577 40.3084 14.1714 39.7354 14.5597C39.1673 14.9479 38.4736 15.142 37.6545 15.142C36.9253 15.142 36.2837 14.9763 35.7298 14.6449C35.1758 14.3134 34.7425 13.8423 34.43 13.2315C34.1223 12.6207 33.966 11.8892 33.9613 11.0369V4.09091H36.9869V10.4972C36.9916 11.1411 37.1644 11.6501 37.5053 12.0241C37.8462 12.3982 38.3031 12.5852 38.8761 12.5852C39.2406 12.5852 39.5816 12.5024 39.8988 12.3366C40.216 12.1662 40.4717 11.9152 40.6658 11.5838C40.8647 11.2524 40.9618 10.8428 40.957 10.3551ZM50.4226 15.1776C49.594 15.1776 48.8435 14.9645 48.1712 14.5384C47.5036 14.1075 46.9732 13.4754 46.5803 12.642C46.192 11.804 45.9979 10.7765 45.9979 9.55966C45.9979 8.30966 46.1991 7.27036 46.6016 6.44176C47.004 5.60843 47.5391 4.9858 48.2067 4.57386C48.879 4.1572 49.6153 3.94886 50.4155 3.94886C51.0263 3.94886 51.5353 4.05303 51.9425 4.26136C52.3544 4.46496 52.6858 4.72064 52.9368 5.02841C53.1925 5.33144 53.3866 5.62973 53.5192 5.9233H53.6115V0.454545H56.63V15H53.647V13.2528H53.5192C53.3771 13.5559 53.1759 13.8565 52.9155 14.1548C52.6598 14.4484 52.326 14.6922 51.9141 14.8864C51.5069 15.0805 51.0097 15.1776 50.4226 15.1776ZM51.3814 12.7699C51.8691 12.7699 52.281 12.6373 52.6172 12.3722C52.9581 12.1023 53.2185 11.7259 53.3984 11.2429C53.5831 10.7599 53.6754 10.1941 53.6754 9.54545C53.6754 8.89678 53.5855 8.33333 53.4055 7.85511C53.2256 7.37689 52.9652 7.00758 52.6243 6.74716C52.2834 6.48674 51.8691 6.35653 51.3814 6.35653C50.8842 6.35653 50.4652 6.49148 50.1243 6.76136C49.7834 7.03125 49.5253 7.4053 49.3501 7.88352C49.175 8.36174 49.0874 8.91572 49.0874 9.54545C49.0874 10.1799 49.175 10.741 49.3501 11.2287C49.5301 11.7116 49.7881 12.0904 50.1243 12.3651C50.4652 12.6349 50.8842 12.7699 51.3814 12.7699ZM9.15483 28.6378C9.09801 28.0649 8.85417 27.6198 8.4233 27.3026C7.99242 26.9853 7.40767 26.8267 6.66903 26.8267C6.16714 26.8267 5.74337 26.8977 5.39773 27.0398C5.05208 27.1771 4.78693 27.3688 4.60227 27.6151C4.42235 27.8613 4.33239 28.1406 4.33239 28.4531C4.32292 28.7135 4.37737 28.9408 4.49574 29.1349C4.61884 29.3291 4.78693 29.4972 5 29.6392C5.21307 29.7765 5.45928 29.8973 5.73864 30.0014C6.01799 30.1009 6.31629 30.1861 6.63352 30.2571L7.94034 30.5696C8.57481 30.7116 9.1572 30.901 9.6875 31.1378C10.2178 31.3745 10.6771 31.6657 11.0653 32.0114C11.4536 32.357 11.7543 32.7642 11.9673 33.233C12.1851 33.7017 12.2964 34.2391 12.3011 34.8452C12.2964 35.7353 12.0691 36.5071 11.6193 37.1605C11.1742 37.8092 10.5303 38.3134 9.6875 38.6733C8.84943 39.0284 7.83854 39.206 6.65483 39.206C5.48059 39.206 4.45786 39.026 3.58665 38.6662C2.72017 38.3063 2.04309 37.7737 1.5554 37.0682C1.07244 36.358 0.819129 35.4796 0.795455 34.4332H3.77131C3.80445 34.9209 3.94413 35.3281 4.19034 35.6548C4.44129 35.9768 4.77509 36.2206 5.19176 36.3864C5.61316 36.5473 6.08902 36.6278 6.61932 36.6278C7.14015 36.6278 7.59233 36.5521 7.97585 36.4006C8.36411 36.2491 8.66477 36.0384 8.87784 35.7685C9.09091 35.4986 9.19744 35.1884 9.19744 34.8381C9.19744 34.5114 9.10038 34.2367 8.90625 34.0142C8.71686 33.7917 8.4375 33.6023 8.06818 33.446C7.7036 33.2898 7.25616 33.1477 6.72585 33.0199L5.14205 32.6222C3.91572 32.3239 2.94744 31.8575 2.23722 31.223C1.52699 30.5885 1.17424 29.7339 1.17898 28.6591C1.17424 27.7784 1.40862 27.009 1.8821 26.3509C2.36032 25.6927 3.0161 25.179 3.84943 24.8097C4.68277 24.4403 5.62973 24.2557 6.69034 24.2557C7.76989 24.2557 8.71212 24.4403 9.51705 24.8097C10.3267 25.179 10.9564 25.6927 11.4062 26.3509C11.8561 27.009 12.0881 27.7713 12.1023 28.6378H9.15483ZM19.2844 39.2131C18.1623 39.2131 17.1964 38.9858 16.3867 38.5312C15.5818 38.072 14.9615 37.4233 14.5259 36.5852C14.0903 35.7424 13.8725 34.7457 13.8725 33.5952C13.8725 32.473 14.0903 31.4882 14.5259 30.6406C14.9615 29.7931 15.5747 29.1326 16.3654 28.6591C17.1609 28.1856 18.0936 27.9489 19.1637 27.9489C19.8834 27.9489 20.5534 28.0649 21.1737 28.2969C21.7987 28.5241 22.3432 28.8674 22.8072 29.3267C23.2759 29.786 23.6405 30.3636 23.9009 31.0597C24.1613 31.7509 24.2915 32.5606 24.2915 33.4886V34.3196H15.0799V32.4446H21.4435C21.4435 32.009 21.3488 31.6231 21.1594 31.2869C20.9701 30.9508 20.7073 30.688 20.3711 30.4986C20.0397 30.3045 19.6538 30.2074 19.2134 30.2074C18.7541 30.2074 18.3469 30.3139 17.9918 30.527C17.6415 30.7353 17.3668 31.017 17.168 31.3722C16.9691 31.7225 16.8673 32.1132 16.8626 32.544V34.3267C16.8626 34.8665 16.962 35.3329 17.1609 35.7259C17.3645 36.1188 17.6509 36.4219 18.0202 36.6349C18.3896 36.848 18.8275 36.9545 19.3342 36.9545C19.6703 36.9545 19.9781 36.9072 20.2575 36.8125C20.5368 36.7178 20.7759 36.5758 20.9748 36.3864C21.1737 36.197 21.3252 35.965 21.4293 35.6903L24.2276 35.875C24.0856 36.5473 23.7944 37.1345 23.354 37.6364C22.9184 38.1335 22.355 38.5218 21.6637 38.8011C20.9772 39.0758 20.1841 39.2131 19.2844 39.2131ZM26.266 39V28.0909H29.1992V29.9943H29.3129C29.5117 29.3172 29.8455 28.8059 30.3143 28.4602C30.783 28.1098 31.3228 27.9347 31.9336 27.9347C32.0851 27.9347 32.2485 27.9441 32.4237 27.9631C32.5988 27.982 32.7527 28.008 32.8853 28.0412V30.7259C32.7433 30.6832 32.5468 30.6454 32.2958 30.6122C32.0449 30.5791 31.8152 30.5625 31.6069 30.5625C31.1618 30.5625 30.7641 30.6596 30.4137 30.8537C30.0681 31.0431 29.7934 31.3082 29.5898 31.6491C29.391 31.9901 29.2915 32.383 29.2915 32.8281V39H26.266ZM44.9521 28.0909L41.1381 39H37.729L33.9151 28.0909H37.1112L39.3768 35.8963H39.4904L41.7489 28.0909H44.9521ZM46.5004 39V28.0909H49.5259V39H46.5004ZM48.0202 26.6847C47.5704 26.6847 47.1845 26.5355 46.8626 26.2372C46.5453 25.9342 46.3867 25.572 46.3867 25.1506C46.3867 24.7339 46.5453 24.3764 46.8626 24.0781C47.1845 23.7751 47.5704 23.6236 48.0202 23.6236C48.4701 23.6236 48.8536 23.7751 49.1708 24.0781C49.4928 24.3764 49.6538 24.7339 49.6538 25.1506C49.6538 25.572 49.4928 25.9342 49.1708 26.2372C48.8536 26.5355 48.4701 26.6847 48.0202 26.6847ZM56.8786 39.2131C55.7611 39.2131 54.8 38.9763 53.995 38.5028C53.1948 38.0246 52.5793 37.3617 52.1484 36.5142C51.7223 35.6667 51.5092 34.6913 51.5092 33.5881C51.5092 32.4706 51.7247 31.4905 52.1555 30.6477C52.5911 29.8002 53.209 29.1397 54.0092 28.6662C54.8094 28.188 55.7611 27.9489 56.8643 27.9489C57.8161 27.9489 58.6494 28.1217 59.3643 28.4673C60.0793 28.813 60.6451 29.2983 61.0618 29.9233C61.4785 30.5483 61.7081 31.2822 61.7507 32.125H58.8956C58.8151 31.5805 58.602 31.1425 58.2564 30.8111C57.9155 30.4749 57.468 30.3068 56.9141 30.3068C56.4453 30.3068 56.0357 30.4347 55.6854 30.6903C55.3397 30.9413 55.0698 31.3082 54.8757 31.7912C54.6816 32.2741 54.5845 32.8589 54.5845 33.5455C54.5845 34.2415 54.6792 34.8333 54.8686 35.321C55.0627 35.8087 55.335 36.1804 55.6854 36.4361C56.0357 36.6918 56.4453 36.8196 56.9141 36.8196C57.2597 36.8196 57.5698 36.7486 57.8445 36.6065C58.1238 36.4645 58.3535 36.2585 58.5334 35.9886C58.718 35.714 58.8388 35.3849 58.8956 35.0014H61.7507C61.7034 35.8348 61.4761 36.5687 61.0689 37.2031C60.6664 37.8329 60.1101 38.3253 59.3999 38.6804C58.6896 39.0355 57.8492 39.2131 56.8786 39.2131ZM68.6594 39.2131C67.5373 39.2131 66.5714 38.9858 65.7617 38.5312C64.9568 38.072 64.3365 37.4233 63.9009 36.5852C63.4653 35.7424 63.2475 34.7457 63.2475 33.5952C63.2475 32.473 63.4653 31.4882 63.9009 30.6406C64.3365 29.7931 64.9497 29.1326 65.7404 28.6591C66.5359 28.1856 67.4686 27.9489 68.5387 27.9489C69.2584 27.9489 69.9284 28.0649 70.5487 28.2969C71.1737 28.5241 71.7182 28.8674 72.1822 29.3267C72.6509 29.786 73.0155 30.3636 73.2759 31.0597C73.5363 31.7509 73.6665 32.5606 73.6665 33.4886V34.3196H64.4549V32.4446H70.8185C70.8185 32.009 70.7238 31.6231 70.5344 31.2869C70.3451 30.9508 70.0823 30.688 69.7461 30.4986C69.4147 30.3045 69.0288 30.2074 68.5884 30.2074C68.1291 30.2074 67.7219 30.3139 67.3668 30.527C67.0165 30.7353 66.7418 31.017 66.543 31.3722C66.3441 31.7225 66.2423 32.1132 66.2376 32.544V34.3267C66.2376 34.8665 66.337 35.3329 66.5359 35.7259C66.7395 36.1188 67.0259 36.4219 67.3952 36.6349C67.7646 36.848 68.2025 36.9545 68.7092 36.9545C69.0453 36.9545 69.3531 36.9072 69.6325 36.8125C69.9118 36.7178 70.1509 36.5758 70.3498 36.3864C70.5487 36.197 70.7002 35.965 70.8043 35.6903L73.6026 35.875C73.4606 36.5473 73.1694 37.1345 72.729 37.6364C72.2934 38.1335 71.73 38.5218 71.0387 38.8011C70.3522 39.0758 69.5591 39.2131 68.6594 39.2131ZM84.7177 31.2017L81.9478 31.3722C81.9004 31.1354 81.7987 30.9223 81.6424 30.733C81.4862 30.5388 81.2802 30.3849 81.0245 30.2713C80.7736 30.1529 80.4729 30.0938 80.1225 30.0938C79.6538 30.0938 79.2584 30.1932 78.9364 30.392C78.6145 30.5862 78.4535 30.8466 78.4535 31.1733C78.4535 31.4337 78.5576 31.6539 78.766 31.8338C78.9743 32.0137 79.3318 32.1581 79.8384 32.267L81.8129 32.6648C82.8735 32.8826 83.6642 33.233 84.185 33.7159C84.7058 34.1989 84.9663 34.8333 84.9663 35.6193C84.9663 36.3343 84.7556 36.9616 84.3342 37.5014C83.9175 38.0412 83.3446 38.4626 82.6154 38.7656C81.891 39.0639 81.0553 39.2131 80.1083 39.2131C78.6642 39.2131 77.5136 38.9124 76.6566 38.3111C75.8043 37.705 75.3048 36.8812 75.158 35.8395L78.1339 35.6832C78.2238 36.1236 78.4416 36.4598 78.7873 36.6918C79.1329 36.919 79.5756 37.0327 80.1154 37.0327C80.6457 37.0327 81.0719 36.9309 81.3938 36.7273C81.7205 36.5189 81.8862 36.2514 81.891 35.9247C81.8862 35.6501 81.7702 35.4252 81.543 35.25C81.3157 35.0701 80.9653 34.9328 80.4918 34.8381L78.6026 34.4616C77.5373 34.2486 76.7442 33.8793 76.2234 33.3537C75.7073 32.8281 75.4492 32.1581 75.4492 31.3438C75.4492 30.643 75.6386 30.0393 76.0174 29.5327C76.4009 29.026 76.9383 28.6354 77.6296 28.3608C78.3256 28.0862 79.14 27.9489 80.0728 27.9489C81.4506 27.9489 82.5349 28.2401 83.3256 28.8224C84.1211 29.4048 84.5851 30.1979 84.7177 31.2017Z" fill="#F47C35"/>
</svg>
