<svg width="169" height="169" viewBox="0 0 169 169" fill="none" xmlns="http://www.w3.org/2000/svg">
<path d="M51.521 64.8757C52.4175 64.8757 53.2772 64.5196 53.9111 63.8857C54.5449 63.2519 54.901 62.3922 54.901 61.4957C54.901 60.5993 54.5449 59.7396 53.9111 59.1057C53.2772 58.4718 52.4175 58.1157 51.521 58.1157H38.7784C37.882 58.1157 37.0223 58.4718 36.3884 59.1057C35.7545 59.7396 35.3984 60.5993 35.3984 61.4957V135.69C35.3984 136.587 35.7545 137.446 36.3884 138.08C37.0223 138.714 37.882 139.07 38.7784 139.07H112.973C113.869 139.07 114.729 138.714 115.363 138.08C115.997 137.446 116.353 136.587 116.353 135.69V122.964C116.353 122.068 115.997 121.208 115.363 120.574C114.729 119.941 113.869 119.584 112.973 119.584C112.076 119.584 111.217 119.941 110.583 120.574C109.949 121.208 109.593 122.068 109.593 122.964V132.31H42.1618V64.8757H51.521Z" fill="black"/>
<path d="M140.183 30.9136H65.9855C65.089 30.9136 64.2293 31.2697 63.5955 31.9036C62.9616 32.5374 62.6055 33.3971 62.6055 34.2936V108.488C62.6055 109.384 62.9616 110.244 63.5955 110.878C64.2293 111.512 65.089 111.868 65.9855 111.868H140.18C141.076 111.868 141.936 111.512 142.57 110.878C143.204 110.244 143.56 109.384 143.56 108.488V34.2936C143.561 33.8497 143.474 33.4101 143.305 32.9998C143.135 32.5896 142.887 32.2168 142.573 31.9028C142.259 31.5888 141.887 31.3398 141.477 31.17C141.067 31.0003 140.627 30.9131 140.183 30.9136ZM136.803 105.108H69.3655V37.6736H136.8L136.803 105.108Z" fill="black"/>
</svg>
