<svg width="131" height="133" viewBox="0 0 131 133" fill="none" xmlns="http://www.w3.org/2000/svg">
<path d="M67.6127 50.7097C81.6157 50.7097 92.9675 39.3579 92.9675 25.3548C92.9675 11.3517 81.6157 0 67.6127 0C53.6096 0 42.2578 11.3517 42.2578 25.3548C42.2578 39.3579 53.6096 50.7097 67.6127 50.7097Z" fill="#FEDC55"/>
<path d="M101.202 95.8202L80.9178 82.454L72.9986 77.2182L72.7873 77.1759L71.2956 62.7025L54.4389 59.0007C51.2947 58.3225 48.0241 58.5287 44.99 59.5966L21.0508 68.2215V100.485C29.0644 111.881 39.8188 121.074 52.3218 127.218L61.4748 131.731C62.8866 132.44 64.5018 132.631 66.0401 132.273C67.5785 131.915 68.943 131.03 69.8968 129.771C70.8506 128.512 71.3335 126.959 71.2617 125.381C71.19 123.803 70.568 122.3 69.5039 121.133L70.0152 121.175H70.0575L71.5914 122.198C72.7508 122.971 74.1312 123.343 75.5221 123.259C76.9131 123.174 78.2381 122.637 79.2951 121.729C79.7324 121.34 80.1186 120.896 80.4445 120.41C80.9161 119.71 81.2431 118.923 81.4065 118.095C81.5698 117.267 81.5662 116.415 81.3957 115.588C81.2253 114.762 80.8915 113.977 80.414 113.282C79.9364 112.586 79.3247 111.992 78.6147 111.536L84.0914 115.128C84.9815 115.716 86.0053 116.072 87.0686 116.161C88.132 116.25 89.2007 116.071 90.1765 115.639C91.2993 115.132 92.258 114.321 92.9444 113.298C93.8677 111.886 94.1935 110.166 93.8505 108.515C93.5075 106.863 92.5237 105.415 91.1147 104.487L89.7962 103.591C91.3724 104.614 92.8599 105.59 94.1784 106.486C95.5949 107.377 97.3044 107.678 98.9399 107.323C100.575 106.968 102.006 105.985 102.926 104.587C103.845 103.189 104.18 101.485 103.857 99.8431C103.535 98.2008 102.581 96.7504 101.202 95.8033V95.8202Z" fill="#FCC37A"/>
<path d="M100.53 96.9569L71.7357 77.9957L60.4232 81.6679C59.1459 82.0829 57.7757 82.1189 56.4783 81.7717C55.1809 81.4245 54.0119 80.7089 53.1126 79.7114C52.3491 78.8645 51.8056 77.8428 51.5302 76.7364C51.2547 75.6299 51.2556 74.4727 51.5328 73.3667C51.8101 72.2607 52.3551 71.2398 53.1199 70.3941C53.8847 69.5485 54.8458 68.9039 55.9185 68.5172L74.6684 61.7559C77.3212 60.7994 80.2129 60.7297 82.9087 61.5573L109.954 69.861V101.749H109.007C107.306 101.746 105.635 101.305 104.154 100.468C102.674 99.6308 101.434 98.4258 100.556 96.9696L100.53 96.9569Z" fill="#FDDAAA"/>
<path d="M21.129 66.7593V100.566C21.129 101.686 20.6838 102.761 19.8913 103.554C19.0988 104.346 18.024 104.792 16.9032 104.792H0V62.5334H16.9032C18.024 62.5334 19.0988 62.9787 19.8913 63.7712C20.6838 64.5637 21.129 65.6385 21.129 66.7593Z" fill="#82C8EC"/>
<path d="M114.097 62.542H131V104.8H114.097C112.976 104.8 111.901 104.355 111.109 103.562C110.316 102.77 109.871 101.695 109.871 100.574V66.7678C109.871 65.647 110.316 64.5722 111.109 63.7797C111.901 62.9872 112.976 62.542 114.097 62.542Z" fill="#ED6649"/>
</svg>
