<svg width="33" height="16" viewBox="0 0 33 16" fill="none" xmlns="http://www.w3.org/2000/svg">
<path d="M3.33949 0.454545V15H0.264205V0.454545H3.33949ZM19.2362 7.72727C19.2362 9.31345 18.9355 10.6629 18.3342 11.7756C17.7376 12.8883 16.9232 13.7382 15.891 14.3253C14.8635 14.9077 13.7082 15.1989 12.4251 15.1989C11.1325 15.1989 9.97242 14.9053 8.94496 14.3182C7.9175 13.7311 7.10547 12.8812 6.50888 11.7685C5.91229 10.6558 5.61399 9.30871 5.61399 7.72727C5.61399 6.1411 5.91229 4.79167 6.50888 3.67898C7.10547 2.56629 7.9175 1.71875 8.94496 1.13636C9.97242 0.549242 11.1325 0.255681 12.4251 0.255681C13.7082 0.255681 14.8635 0.549242 15.891 1.13636C16.9232 1.71875 17.7376 2.56629 18.3342 3.67898C18.9355 4.79167 19.2362 6.1411 19.2362 7.72727ZM16.1183 7.72727C16.1183 6.69981 15.9644 5.83333 15.6566 5.12784C15.3536 4.42235 14.9251 3.88731 14.3711 3.52273C13.8171 3.15814 13.1684 2.97585 12.4251 2.97585C11.6817 2.97585 11.033 3.15814 10.479 3.52273C9.92507 3.88731 9.4942 4.42235 9.18643 5.12784C8.8834 5.83333 8.73189 6.69981 8.73189 7.72727C8.73189 8.75473 8.8834 9.62121 9.18643 10.3267C9.4942 11.0322 9.92507 11.5672 10.479 11.9318C11.033 12.2964 11.6817 12.4787 12.4251 12.4787C13.1684 12.4787 13.8171 12.2964 14.3711 11.9318C14.9251 11.5672 15.3536 11.0322 15.6566 10.3267C15.9644 9.62121 16.1183 8.75473 16.1183 7.72727ZM20.2962 2.99006V0.454545H32.2422V2.99006H27.7891V15H24.7493V2.99006H20.2962Z" fill="#4BB75F"/>
</svg>
