<svg width="75" height="92" viewBox="0 0 75 92" fill="none" xmlns="http://www.w3.org/2000/svg">
<path d="M40.4583 67.875C40.2534 67.6865 40.03 67.519 39.7917 67.375C39.5789 67.2101 39.3393 67.0832 39.0833 67C38.8352 66.8731 38.5676 66.7886 38.2917 66.75C37.4934 66.5812 36.6623 66.6687 35.9167 67C35.3996 67.1871 34.93 67.4857 34.5412 67.8745C34.1524 68.2633 33.8538 68.7329 33.6667 69.25C33.4334 69.7445 33.3192 70.2868 33.3333 70.8333C33.3267 71.3751 33.4258 71.9129 33.625 72.4167C33.8666 72.9146 34.175 73.3772 34.5417 73.7917C34.931 74.1778 35.3927 74.4834 35.9004 74.6907C36.408 74.8981 36.9516 75.0032 37.5 75C38.0466 75.0141 38.5888 74.8999 39.0833 74.6667C39.5883 74.4557 40.0533 74.1597 40.4583 73.7917C40.8445 73.4023 41.15 72.9406 41.3574 72.4329C41.5647 71.9253 41.6698 71.3817 41.6667 70.8333C41.6601 70.2888 41.5468 69.7509 41.3333 69.25C41.135 68.7385 40.8377 68.2713 40.4583 67.875ZM23.125 50.7083C22.9123 50.5434 22.6726 50.4165 22.4167 50.3333C22.174 50.1774 21.9061 50.0646 21.625 50C21.0905 49.8756 20.5345 49.8756 20 50L19.25 50.25L18.5 50.625L17.875 51.125C17.0939 51.9444 16.6608 53.0346 16.6667 54.1667C16.6635 54.715 16.7686 55.2586 16.976 55.7663C17.1833 56.2739 17.4888 56.7357 17.875 57.125C18.28 57.493 18.7451 57.789 19.25 58C19.8812 58.2593 20.5665 58.3596 21.2456 58.2921C21.9247 58.2246 22.5768 57.9913 23.1446 57.6128C23.7125 57.2342 24.1786 56.722 24.5021 56.1211C24.8256 55.5202 24.9966 54.8491 25 54.1667C24.9847 53.0635 24.5531 52.0068 23.7917 51.2083L23.125 50.7083ZM23.7917 67.875C23.3954 67.4957 22.9281 67.1983 22.4167 67C21.6624 66.6503 20.8208 66.5342 20 66.6667L19.25 66.9167C18.9845 67.0079 18.7323 67.134 18.5 67.2917C18.2817 67.4455 18.073 67.6125 17.875 67.7917C17.4957 68.1879 17.1983 68.6552 17 69.1667C16.7796 69.6654 16.6657 70.2047 16.6657 70.75C16.6657 71.2953 16.7796 71.8346 17 72.3333C17.211 72.8383 17.507 73.3033 17.875 73.7083C18.2574 74.1096 18.716 74.4305 19.224 74.6523C19.732 74.8741 20.2791 74.9923 20.8333 75C21.3799 75.0141 21.9222 74.8999 22.4167 74.6667C22.9216 74.4557 23.3867 74.1597 23.7917 73.7917C24.1597 73.3867 24.4557 72.9216 24.6667 72.4167C24.8871 71.9179 25.001 71.3786 25.001 70.8333C25.001 70.288 24.8871 69.7488 24.6667 69.25C24.4684 68.7385 24.171 68.2713 23.7917 67.875ZM35.9167 50.3333C35.4052 50.5316 34.9379 50.829 34.5417 51.2083C33.7803 52.0068 33.3487 53.0635 33.3333 54.1667C33.3367 54.8491 33.5077 55.5202 33.8312 56.1211C34.1547 56.722 34.6209 57.2342 35.1887 57.6128C35.7565 57.9913 36.4086 58.2246 37.0877 58.2921C37.7668 58.3596 38.4521 58.2593 39.0833 58C39.5883 57.789 40.0533 57.493 40.4583 57.125C40.8445 56.7357 41.15 56.2739 41.3574 55.7663C41.5647 55.2586 41.6698 54.715 41.6667 54.1667C41.6513 53.0635 41.2197 52.0068 40.4583 51.2083C39.8724 50.6302 39.1283 50.2385 38.3201 50.0828C37.5118 49.9271 36.6755 50.0143 35.9167 50.3333ZM57.125 67.875C56.72 67.507 56.2549 67.211 55.75 67C54.9912 66.6809 54.1549 66.5937 53.3466 66.7495C52.5383 66.9052 51.7943 67.2968 51.2083 67.875C50.829 68.2713 50.5316 68.7385 50.3333 69.25C50.1129 69.7488 49.999 70.288 49.999 70.8333C49.999 71.3786 50.1129 71.9179 50.3333 72.4167C50.5443 72.9216 50.8403 73.3867 51.2083 73.7917C51.5977 74.1778 52.0594 74.4834 52.5671 74.6907C53.0747 74.8981 53.6183 75.0032 54.1667 75C54.7132 75.0141 55.2555 74.8999 55.75 74.6667C56.2549 74.4557 56.72 74.1597 57.125 73.7917C57.7032 73.2057 58.0948 72.4617 58.2505 71.6534C58.4063 70.8451 58.3191 70.0088 58 69.25C57.8017 68.7385 57.5043 68.2713 57.125 67.875ZM54.1667 16.6667H20.8333C19.7283 16.6667 18.6685 17.1057 17.8871 17.8871C17.1057 18.6685 16.6667 19.7283 16.6667 20.8333V37.5C16.6667 38.6051 17.1057 39.6649 17.8871 40.4463C18.6685 41.2277 19.7283 41.6667 20.8333 41.6667H54.1667C55.2717 41.6667 56.3315 41.2277 57.1129 40.4463C57.8943 39.6649 58.3333 38.6051 58.3333 37.5V20.8333C58.3333 19.7283 57.8943 18.6685 57.1129 17.8871C56.3315 17.1057 55.2717 16.6667 54.1667 16.6667ZM50 33.3333H25V25H50V33.3333ZM62.5 0H12.5C9.18479 0 6.00537 1.31696 3.66117 3.66116C1.31696 6.00537 0 9.18479 0 12.5V79.1667C0 82.4819 1.31696 85.6613 3.66117 88.0055C6.00537 90.3497 9.18479 91.6667 12.5 91.6667H62.5C65.8152 91.6667 68.9946 90.3497 71.3388 88.0055C73.683 85.6613 75 82.4819 75 79.1667V12.5C75 9.18479 73.683 6.00537 71.3388 3.66116C68.9946 1.31696 65.8152 0 62.5 0ZM66.6667 79.1667C66.6667 80.2717 66.2277 81.3315 65.4463 82.1129C64.6649 82.8943 63.6051 83.3333 62.5 83.3333H12.5C11.3949 83.3333 10.3351 82.8943 9.55372 82.1129C8.77232 81.3315 8.33333 80.2717 8.33333 79.1667V12.5C8.33333 11.3949 8.77232 10.3351 9.55372 9.55372C10.3351 8.77232 11.3949 8.33333 12.5 8.33333H62.5C63.6051 8.33333 64.6649 8.77232 65.4463 9.55372C66.2277 10.3351 66.6667 11.3949 66.6667 12.5V79.1667ZM56.4583 50.7083C56.2456 50.5434 56.006 50.4165 55.75 50.3333C55.5019 50.2065 55.2343 50.122 54.9583 50.0833C54.4238 49.9589 53.8679 49.9589 53.3333 50.0833L52.5833 50.3333L51.8333 50.7083L51.2083 51.2083C50.4469 52.0068 50.0153 53.0635 50 54.1667C50.0034 54.8491 50.1744 55.5202 50.4979 56.1211C50.8214 56.722 51.2875 57.2342 51.8554 57.6128C52.4232 57.9913 53.0753 58.2246 53.7544 58.2921C54.4335 58.3596 55.1188 58.2593 55.75 58C56.2549 57.789 56.72 57.493 57.125 57.125C57.5112 56.7357 57.8167 56.2739 58.024 55.7663C58.2314 55.2586 58.3365 54.715 58.3333 54.1667C58.318 53.0635 57.8864 52.0068 57.125 51.2083L56.4583 50.7083Z" fill="#FCC37A"/>
</svg>
