<svg width="48" height="16" viewBox="0 0 48 16" fill="none" xmlns="http://www.w3.org/2000/svg">
<path d="M0.264205 15V0.454545H6.00284C7.10606 0.454545 8.04593 0.665246 8.82244 1.08665C9.59896 1.50331 10.1908 2.08333 10.598 2.8267C11.0099 3.56534 11.2159 4.41761 11.2159 5.38352C11.2159 6.34943 11.0076 7.2017 10.5909 7.94034C10.1742 8.67898 9.57055 9.25426 8.77983 9.66619C7.99384 10.0781 7.04214 10.2841 5.92472 10.2841H2.26705V7.8196H5.42756C6.01941 7.8196 6.5071 7.7178 6.89062 7.5142C7.27888 7.30587 7.56771 7.01941 7.7571 6.65483C7.95123 6.28551 8.0483 5.86174 8.0483 5.38352C8.0483 4.90057 7.95123 4.47917 7.7571 4.11932C7.56771 3.75473 7.27888 3.47301 6.89062 3.27415C6.50237 3.07055 6.00994 2.96875 5.41335 2.96875H3.33949V15H0.264205ZM15.9744 15.206C15.2784 15.206 14.6581 15.0852 14.1136 14.8438C13.5691 14.5975 13.1383 14.2353 12.821 13.7571C12.5085 13.2741 12.3523 12.6728 12.3523 11.9531C12.3523 11.3471 12.4635 10.8381 12.6861 10.4261C12.9086 10.0142 13.2116 9.68277 13.5952 9.43182C13.9787 9.18087 14.4143 8.99148 14.902 8.86364C15.3944 8.7358 15.9105 8.64583 16.4503 8.59375C17.0848 8.52746 17.5961 8.46591 17.9844 8.40909C18.3726 8.34754 18.6544 8.25758 18.8295 8.1392C19.0047 8.02083 19.0923 7.84564 19.0923 7.61364V7.57102C19.0923 7.12121 18.9503 6.7732 18.6662 6.52699C18.3868 6.28078 17.9891 6.15767 17.473 6.15767C16.9285 6.15767 16.4953 6.27841 16.1733 6.51989C15.8513 6.75663 15.6383 7.05492 15.5341 7.41477L12.7358 7.1875C12.8778 6.52462 13.1572 5.9517 13.5739 5.46875C13.9905 4.98106 14.5279 4.60701 15.1861 4.34659C15.849 4.08144 16.616 3.94886 17.4872 3.94886C18.0933 3.94886 18.6733 4.01989 19.2273 4.16193C19.786 4.30398 20.2808 4.52415 20.7116 4.82244C21.1473 5.12074 21.4905 5.50426 21.7415 5.97301C21.9924 6.43703 22.1179 6.99337 22.1179 7.64205V15H19.2486V13.4872H19.1634C18.9882 13.8281 18.7538 14.1288 18.4602 14.3892C18.1667 14.6449 17.8139 14.8461 17.402 14.9929C16.9901 15.1349 16.5142 15.206 15.9744 15.206ZM16.8409 13.1179C17.286 13.1179 17.679 13.0303 18.0199 12.8551C18.3608 12.6752 18.6283 12.4337 18.8224 12.1307C19.0166 11.8277 19.1136 11.4844 19.1136 11.1009V9.94318C19.0189 10.0047 18.8887 10.0616 18.723 10.1136C18.562 10.161 18.3797 10.206 18.1761 10.2486C17.9725 10.2865 17.7689 10.322 17.5653 10.3551C17.3617 10.3835 17.1771 10.4096 17.0114 10.4332C16.6563 10.4853 16.3461 10.5682 16.081 10.6818C15.8158 10.7955 15.6098 10.9493 15.4631 11.1435C15.3163 11.3329 15.2429 11.5696 15.2429 11.8537C15.2429 12.2656 15.392 12.5805 15.6903 12.7983C15.9934 13.0114 16.3769 13.1179 16.8409 13.1179ZM27.576 15.206C26.88 15.206 26.2597 15.0852 25.7152 14.8438C25.1707 14.5975 24.7398 14.2353 24.4226 13.7571C24.1101 13.2741 23.9538 12.6728 23.9538 11.9531C23.9538 11.3471 24.0651 10.8381 24.2876 10.4261C24.5102 10.0142 24.8132 9.68277 25.1967 9.43182C25.5803 9.18087 26.0159 8.99148 26.5036 8.86364C26.996 8.7358 27.5121 8.64583 28.0518 8.59375C28.6863 8.52746 29.1977 8.46591 29.5859 8.40909C29.9742 8.34754 30.2559 8.25758 30.4311 8.1392C30.6063 8.02083 30.6939 7.84564 30.6939 7.61364V7.57102C30.6939 7.12121 30.5518 6.7732 30.2678 6.52699C29.9884 6.28078 29.5907 6.15767 29.0746 6.15767C28.5301 6.15767 28.0968 6.27841 27.7749 6.51989C27.4529 6.75663 27.2398 7.05492 27.1357 7.41477L24.3374 7.1875C24.4794 6.52462 24.7588 5.9517 25.1754 5.46875C25.5921 4.98106 26.1295 4.60701 26.7876 4.34659C27.4505 4.08144 28.2176 3.94886 29.0888 3.94886C29.6948 3.94886 30.2749 4.01989 30.8288 4.16193C31.3875 4.30398 31.8823 4.52415 32.3132 4.82244C32.7488 5.12074 33.0921 5.50426 33.343 5.97301C33.594 6.43703 33.7195 6.99337 33.7195 7.64205V15H30.8501V13.4872H30.7649C30.5897 13.8281 30.3554 14.1288 30.0618 14.3892C29.7682 14.6449 29.4155 14.8461 29.0036 14.9929C28.5916 15.1349 28.1158 15.206 27.576 15.206ZM28.4425 13.1179C28.8875 13.1179 29.2805 13.0303 29.6214 12.8551C29.9624 12.6752 30.2299 12.4337 30.424 12.1307C30.6181 11.8277 30.7152 11.4844 30.7152 11.1009V9.94318C30.6205 10.0047 30.4903 10.0616 30.3246 10.1136C30.1636 10.161 29.9813 10.206 29.7777 10.2486C29.5741 10.2865 29.3705 10.322 29.1669 10.3551C28.9633 10.3835 28.7786 10.4096 28.6129 10.4332C28.2578 10.4853 27.9477 10.5682 27.6825 10.6818C27.4174 10.7955 27.2114 10.9493 27.0646 11.1435C26.9179 11.3329 26.8445 11.5696 26.8445 11.8537C26.8445 12.2656 26.9936 12.5805 27.2919 12.7983C27.5949 13.0114 27.9785 13.1179 28.4425 13.1179ZM44.0142 4.63778C43.9574 4.06487 43.7135 3.61979 43.2827 3.30256C42.8518 2.98532 42.267 2.8267 41.5284 2.8267C41.0265 2.8267 40.6027 2.89773 40.2571 3.03977C39.9115 3.17708 39.6463 3.36884 39.4616 3.61506C39.2817 3.86127 39.1918 4.14062 39.1918 4.45312C39.1823 4.71354 39.2367 4.94081 39.3551 5.13494C39.4782 5.32907 39.6463 5.49716 39.8594 5.6392C40.0724 5.77651 40.3187 5.89725 40.598 6.00142C40.8774 6.10085 41.1757 6.18608 41.4929 6.2571L42.7997 6.5696C43.4342 6.71165 44.0166 6.90104 44.5469 7.13778C45.0772 7.37453 45.5365 7.66572 45.9247 8.01136C46.313 8.35701 46.6136 8.7642 46.8267 9.23295C47.0445 9.7017 47.1558 10.2391 47.1605 10.8452C47.1558 11.7353 46.9285 12.5071 46.4787 13.1605C46.0336 13.8092 45.3897 14.3134 44.5469 14.6733C43.7088 15.0284 42.6979 15.206 41.5142 15.206C40.34 15.206 39.3172 15.026 38.446 14.6662C37.5795 14.3063 36.9025 13.7737 36.4148 13.0682C35.9318 12.358 35.6785 11.4796 35.6548 10.4332H38.6307C38.6638 10.9209 38.8035 11.3281 39.0497 11.6548C39.3007 11.9768 39.6345 12.2206 40.0511 12.3864C40.4725 12.5473 40.9484 12.6278 41.4787 12.6278C41.9995 12.6278 42.4517 12.5521 42.8352 12.4006C43.2235 12.2491 43.5241 12.0384 43.7372 11.7685C43.9503 11.4986 44.0568 11.1884 44.0568 10.8381C44.0568 10.5114 43.9598 10.2367 43.7656 10.0142C43.5762 9.79167 43.2969 9.60227 42.9276 9.44602C42.563 9.28977 42.1155 9.14773 41.5852 9.01989L40.0014 8.62216C38.7751 8.32386 37.8068 7.85748 37.0966 7.22301C36.3864 6.58854 36.0336 5.7339 36.0384 4.65909C36.0336 3.77841 36.268 3.009 36.7415 2.35085C37.2197 1.69271 37.8755 1.17898 38.7088 0.809659C39.5421 0.44034 40.4891 0.255681 41.5497 0.255681C42.6293 0.255681 43.5715 0.44034 44.3764 0.809659C45.1861 1.17898 45.8158 1.69271 46.2656 2.35085C46.7154 3.009 46.9474 3.77131 46.9616 4.63778H44.0142Z" fill="#02161D"/>
</svg>
