<svg width="92" height="92" viewBox="0 0 92 92" fill="none" xmlns="http://www.w3.org/2000/svg">
<path d="M86.25 17.25H63.25V5.75C63.25 2.57169 60.6754 0 57.5 0H34.5C31.3246 0 28.75 2.57169 28.75 5.75V17.25H5.75C2.57456 17.25 0 19.8217 0 23V86.25C0 89.4283 2.57456 92 5.75 92H86.25C89.4254 92 92 89.4283 92 86.25V23C92 19.8217 89.4254 17.25 86.25 17.25ZM40.25 11.5H51.75V17.25H40.25V11.5ZM80.5 80.5H11.5V57.5H34.5V63.25H57.5V57.5H80.5V80.5ZM80.5 51.75H57.5V46H34.5V51.75H11.5V28.75H80.5V51.75Z" fill="#FCC37A"/>
</svg>
