<svg width="69" height="40" viewBox="0 0 69 40" fill="none" xmlns="http://www.w3.org/2000/svg">
<path d="M9.15483 4.63778C9.09801 4.06487 8.85417 3.61979 8.4233 3.30256C7.99242 2.98532 7.40767 2.8267 6.66903 2.8267C6.16714 2.8267 5.74337 2.89773 5.39773 3.03977C5.05208 3.17708 4.78693 3.36884 4.60227 3.61506C4.42235 3.86127 4.33239 4.14062 4.33239 4.45312C4.32292 4.71354 4.37737 4.94081 4.49574 5.13494C4.61884 5.32907 4.78693 5.49716 5 5.6392C5.21307 5.77651 5.45928 5.89725 5.73864 6.00142C6.01799 6.10085 6.31629 6.18608 6.63352 6.2571L7.94034 6.5696C8.57481 6.71165 9.1572 6.90104 9.6875 7.13778C10.2178 7.37453 10.6771 7.66572 11.0653 8.01136C11.4536 8.35701 11.7543 8.7642 11.9673 9.23295C12.1851 9.7017 12.2964 10.2391 12.3011 10.8452C12.2964 11.7353 12.0691 12.5071 11.6193 13.1605C11.1742 13.8092 10.5303 14.3134 9.6875 14.6733C8.84943 15.0284 7.83854 15.206 6.65483 15.206C5.48059 15.206 4.45786 15.026 3.58665 14.6662C2.72017 14.3063 2.04309 13.7737 1.5554 13.0682C1.07244 12.358 0.819129 11.4796 0.795455 10.4332H3.77131C3.80445 10.9209 3.94413 11.3281 4.19034 11.6548C4.44129 11.9768 4.77509 12.2206 5.19176 12.3864C5.61316 12.5473 6.08902 12.6278 6.61932 12.6278C7.14015 12.6278 7.59233 12.5521 7.97585 12.4006C8.36411 12.2491 8.66477 12.0384 8.87784 11.7685C9.09091 11.4986 9.19744 11.1884 9.19744 10.8381C9.19744 10.5114 9.10038 10.2367 8.90625 10.0142C8.71686 9.79167 8.4375 9.60227 8.06818 9.44602C7.7036 9.28977 7.25616 9.14773 6.72585 9.01989L5.14205 8.62216C3.91572 8.32386 2.94744 7.85748 2.23722 7.22301C1.52699 6.58854 1.17424 5.7339 1.17898 4.65909C1.17424 3.77841 1.40862 3.009 1.8821 2.35085C2.36032 1.69271 3.0161 1.17898 3.84943 0.809659C4.68277 0.44034 5.62973 0.255681 6.69034 0.255681C7.76989 0.255681 8.71212 0.44034 9.51705 0.809659C10.3267 1.17898 10.9564 1.69271 11.4062 2.35085C11.8561 3.009 12.0881 3.77131 12.1023 4.63778H9.15483ZM19.2844 15.2131C18.1623 15.2131 17.1964 14.9858 16.3867 14.5312C15.5818 14.072 14.9615 13.4233 14.5259 12.5852C14.0903 11.7424 13.8725 10.7457 13.8725 9.59517C13.8725 8.47301 14.0903 7.48816 14.5259 6.64062C14.9615 5.79309 15.5747 5.13258 16.3654 4.65909C17.1609 4.18561 18.0936 3.94886 19.1637 3.94886C19.8834 3.94886 20.5534 4.06487 21.1737 4.29688C21.7987 4.52415 22.3432 4.86742 22.8072 5.3267C23.2759 5.78598 23.6405 6.36364 23.9009 7.05966C24.1613 7.75095 24.2915 8.56061 24.2915 9.48864V10.3196H15.0799V8.4446H21.4435C21.4435 8.009 21.3488 7.62311 21.1594 7.28693C20.9701 6.95076 20.7073 6.68797 20.3711 6.49858C20.0397 6.30445 19.6538 6.20739 19.2134 6.20739C18.7541 6.20739 18.3469 6.31392 17.9918 6.52699C17.6415 6.73532 17.3668 7.01705 17.168 7.37216C16.9691 7.72254 16.8673 8.11316 16.8626 8.54403V10.3267C16.8626 10.8665 16.962 11.3329 17.1609 11.7259C17.3645 12.1188 17.6509 12.4219 18.0202 12.6349C18.3896 12.848 18.8275 12.9545 19.3342 12.9545C19.6703 12.9545 19.9781 12.9072 20.2575 12.8125C20.5368 12.7178 20.7759 12.5758 20.9748 12.3864C21.1737 12.197 21.3252 11.965 21.4293 11.6903L24.2276 11.875C24.0856 12.5473 23.7944 13.1345 23.354 13.6364C22.9184 14.1335 22.355 14.5218 21.6637 14.8011C20.9772 15.0758 20.1841 15.2131 19.2844 15.2131ZM29.2915 8.69318V15H26.266V4.09091H29.1495V6.01562H29.2773C29.5188 5.38116 29.9237 4.87926 30.4918 4.50994C31.06 4.13589 31.7489 3.94886 32.5586 3.94886C33.3162 3.94886 33.9767 4.11458 34.5401 4.44602C35.1036 4.77746 35.5415 5.25095 35.854 5.86648C36.1665 6.47727 36.3228 7.20644 36.3228 8.05398V15H33.2972V8.59375C33.302 7.92614 33.1315 7.4053 32.7859 7.03125C32.4402 6.65246 31.9644 6.46307 31.3583 6.46307C30.9511 6.46307 30.5913 6.55066 30.2788 6.72585C29.971 6.90104 29.7295 7.15672 29.5543 7.4929C29.3839 7.82434 29.2963 8.22443 29.2915 8.69318ZM47.7841 7.2017L45.0142 7.37216C44.9669 7.13542 44.8651 6.92235 44.7088 6.73295C44.5526 6.53883 44.3466 6.38494 44.0909 6.27131C43.84 6.15294 43.5393 6.09375 43.1889 6.09375C42.7202 6.09375 42.3248 6.19318 42.0028 6.39205C41.6809 6.58617 41.5199 6.84659 41.5199 7.1733C41.5199 7.43371 41.6241 7.65388 41.8324 7.83381C42.0407 8.01373 42.3982 8.15814 42.9048 8.26705L44.8793 8.66477C45.9399 8.88258 46.7306 9.23295 47.2514 9.71591C47.7723 10.1989 48.0327 10.8333 48.0327 11.6193C48.0327 12.3343 47.822 12.9616 47.4006 13.5014C46.9839 14.0412 46.411 14.4626 45.6818 14.7656C44.9574 15.0639 44.1217 15.2131 43.1747 15.2131C41.7306 15.2131 40.58 14.9124 39.723 14.3111C38.8707 13.705 38.3712 12.8812 38.2244 11.8395L41.2003 11.6832C41.2902 12.1236 41.508 12.4598 41.8537 12.6918C42.1993 12.919 42.642 13.0327 43.1818 13.0327C43.7121 13.0327 44.1383 12.9309 44.4602 12.7273C44.7869 12.5189 44.9527 12.2514 44.9574 11.9247C44.9527 11.6501 44.8366 11.4252 44.6094 11.25C44.3821 11.0701 44.0317 10.9328 43.5582 10.8381L41.669 10.4616C40.6037 10.2486 39.8106 9.87926 39.2898 9.35369C38.7737 8.82812 38.5156 8.15814 38.5156 7.34375C38.5156 6.64299 38.705 6.0393 39.0838 5.53267C39.4673 5.02604 40.0047 4.63542 40.696 4.3608C41.392 4.08617 42.2064 3.94886 43.1392 3.94886C44.517 3.94886 45.6013 4.24006 46.392 4.82244C47.1875 5.40483 47.6515 6.19792 47.7841 7.2017ZM54.8668 15.2131C53.7636 15.2131 52.8095 14.9787 52.0046 14.5099C51.2044 14.0365 50.5865 13.3783 50.1509 12.5355C49.7153 11.688 49.4975 10.7055 49.4975 9.58807C49.4975 8.46117 49.7153 7.47633 50.1509 6.63352C50.5865 5.78598 51.2044 5.12784 52.0046 4.65909C52.8095 4.18561 53.7636 3.94886 54.8668 3.94886C55.9701 3.94886 56.9218 4.18561 57.7219 4.65909C58.5269 5.12784 59.1471 5.78598 59.5827 6.63352C60.0183 7.47633 60.2362 8.46117 60.2362 9.58807C60.2362 10.7055 60.0183 11.688 59.5827 12.5355C59.1471 13.3783 58.5269 14.0365 57.7219 14.5099C56.9218 14.9787 55.9701 15.2131 54.8668 15.2131ZM54.881 12.8693C55.3829 12.8693 55.802 12.7273 56.1381 12.4432C56.4743 12.1544 56.7276 11.7614 56.8981 11.2642C57.0733 10.767 57.1609 10.2012 57.1609 9.56676C57.1609 8.93229 57.0733 8.36648 56.8981 7.86932C56.7276 7.37216 56.4743 6.97917 56.1381 6.69034C55.802 6.40151 55.3829 6.2571 54.881 6.2571C54.3744 6.2571 53.9483 6.40151 53.6026 6.69034C53.2617 6.97917 53.0037 7.37216 52.8285 7.86932C52.658 8.36648 52.5728 8.93229 52.5728 9.56676C52.5728 10.2012 52.658 10.767 52.8285 11.2642C53.0037 11.7614 53.2617 12.1544 53.6026 12.4432C53.9483 12.7273 54.3744 12.8693 54.881 12.8693ZM62.2035 15V4.09091H65.1367V5.99432H65.2504C65.4492 5.31723 65.783 4.80587 66.2518 4.46023C66.7205 4.10985 67.2603 3.93466 67.8711 3.93466C68.0226 3.93466 68.186 3.94413 68.3612 3.96307C68.5363 3.98201 68.6902 4.00805 68.8228 4.04119V6.72585C68.6808 6.68324 68.4843 6.64536 68.2333 6.61222C67.9824 6.57907 67.7527 6.5625 67.5444 6.5625C67.0993 6.5625 66.7016 6.65956 66.3512 6.85369C66.0056 7.04309 65.7309 7.30824 65.5273 7.64915C65.3285 7.99006 65.229 8.38305 65.229 8.82812V15H62.2035ZM6.42045 39H1.2642V24.4545H6.46307C7.92614 24.4545 9.18561 24.7457 10.2415 25.3281C11.2973 25.9058 12.1094 26.7367 12.6776 27.821C13.2505 28.9053 13.5369 30.2027 13.5369 31.7131C13.5369 33.2282 13.2505 34.5303 12.6776 35.6193C12.1094 36.7083 11.2926 37.544 10.2273 38.1264C9.16667 38.7088 7.89773 39 6.42045 39ZM4.33949 36.3651H6.29261C7.2017 36.3651 7.96638 36.2041 8.58665 35.8821C9.21165 35.5554 9.6804 35.0511 9.9929 34.3693C10.3101 33.6828 10.4688 32.7973 10.4688 31.7131C10.4688 30.6383 10.3101 29.7599 9.9929 29.0781C9.6804 28.3963 9.21402 27.8944 8.59375 27.5724C7.97348 27.2505 7.20881 27.0895 6.29972 27.0895H4.33949V36.3651ZM18.869 39.206C18.1729 39.206 17.5527 39.0852 17.0082 38.8438C16.4637 38.5975 16.0328 38.2353 15.7156 37.7571C15.4031 37.2741 15.2468 36.6728 15.2468 35.9531C15.2468 35.3471 15.3581 34.8381 15.5806 34.4261C15.8031 34.0142 16.1062 33.6828 16.4897 33.4318C16.8732 33.1809 17.3088 32.9915 17.7965 32.8636C18.2889 32.7358 18.805 32.6458 19.3448 32.5938C19.9793 32.5275 20.4906 32.4659 20.8789 32.4091C21.2672 32.3475 21.5489 32.2576 21.7241 32.1392C21.8993 32.0208 21.9869 31.8456 21.9869 31.6136V31.571C21.9869 31.1212 21.8448 30.7732 21.5607 30.527C21.2814 30.2808 20.8836 30.1577 20.3675 30.1577C19.823 30.1577 19.3898 30.2784 19.0678 30.5199C18.7459 30.7566 18.5328 31.0549 18.4286 31.4148L15.6303 31.1875C15.7724 30.5246 16.0517 29.9517 16.4684 29.4688C16.8851 28.9811 17.4225 28.607 18.0806 28.3466C18.7435 28.0814 19.5105 27.9489 20.3817 27.9489C20.9878 27.9489 21.5678 28.0199 22.1218 28.1619C22.6805 28.304 23.1753 28.5241 23.6062 28.8224C24.0418 29.1207 24.3851 29.5043 24.636 29.973C24.887 30.437 25.0124 30.9934 25.0124 31.642V39H22.1431V37.4872H22.0579C21.8827 37.8281 21.6483 38.1288 21.3548 38.3892C21.0612 38.6449 20.7085 38.8461 20.2965 38.9929C19.8846 39.1349 19.4087 39.206 18.869 39.206ZM19.7354 37.1179C20.1805 37.1179 20.5735 37.0303 20.9144 36.8551C21.2553 36.6752 21.5228 36.4337 21.717 36.1307C21.9111 35.8277 22.0082 35.4844 22.0082 35.1009V33.9432C21.9135 34.0047 21.7833 34.0616 21.6175 34.1136C21.4566 34.161 21.2743 34.206 21.0707 34.2486C20.8671 34.2865 20.6635 34.322 20.4599 34.3551C20.2563 34.3835 20.0716 34.4096 19.9059 34.4332C19.5508 34.4853 19.2406 34.5682 18.9755 34.6818C18.7103 34.7955 18.5044 34.9493 18.3576 35.1435C18.2108 35.3329 18.1374 35.5696 18.1374 35.8537C18.1374 36.2656 18.2866 36.5805 18.5849 36.7983C18.8879 37.0114 19.2714 37.1179 19.7354 37.1179ZM33.1623 28.0909V30.3636H26.5927V28.0909H33.1623ZM28.0842 25.4773H31.1097V35.6477C31.1097 35.9271 31.1523 36.1449 31.2376 36.3011C31.3228 36.4527 31.4412 36.5592 31.5927 36.6207C31.7489 36.6823 31.9289 36.7131 32.1325 36.7131C32.2745 36.7131 32.4165 36.7012 32.5586 36.6776C32.7006 36.6491 32.8095 36.6278 32.8853 36.6136L33.3612 38.8651C33.2096 38.9124 32.9966 38.9669 32.7219 39.0284C32.4473 39.0947 32.1135 39.1349 31.7205 39.1491C30.9914 39.1776 30.3522 39.0805 29.8029 38.858C29.2584 38.6354 28.8346 38.2898 28.5316 37.821C28.2286 37.3523 28.0794 36.7604 28.0842 36.0455V25.4773ZM38.244 39.206C37.5479 39.206 36.9277 39.0852 36.3832 38.8438C35.8387 38.5975 35.4078 38.2353 35.0906 37.7571C34.7781 37.2741 34.6218 36.6728 34.6218 35.9531C34.6218 35.3471 34.7331 34.8381 34.9556 34.4261C35.1781 34.0142 35.4812 33.6828 35.8647 33.4318C36.2482 33.1809 36.6838 32.9915 37.1715 32.8636C37.6639 32.7358 38.18 32.6458 38.7198 32.5938C39.3543 32.5275 39.8656 32.4659 40.2539 32.4091C40.6422 32.3475 40.9239 32.2576 41.0991 32.1392C41.2743 32.0208 41.3619 31.8456 41.3619 31.6136V31.571C41.3619 31.1212 41.2198 30.7732 40.9357 30.527C40.6564 30.2808 40.2586 30.1577 39.7425 30.1577C39.198 30.1577 38.7648 30.2784 38.4428 30.5199C38.1209 30.7566 37.9078 31.0549 37.8036 31.4148L35.0053 31.1875C35.1474 30.5246 35.4267 29.9517 35.8434 29.4688C36.2601 28.9811 36.7975 28.607 37.4556 28.3466C38.1185 28.0814 38.8855 27.9489 39.7567 27.9489C40.3628 27.9489 40.9428 28.0199 41.4968 28.1619C42.0555 28.304 42.5503 28.5241 42.9812 28.8224C43.4168 29.1207 43.7601 29.5043 44.011 29.973C44.262 30.437 44.3874 30.9934 44.3874 31.642V39H41.5181V37.4872H41.4329C41.2577 37.8281 41.0233 38.1288 40.7298 38.3892C40.4362 38.6449 40.0835 38.8461 39.6715 38.9929C39.2596 39.1349 38.7837 39.206 38.244 39.206ZM39.1104 37.1179C39.5555 37.1179 39.9485 37.0303 40.2894 36.8551C40.6303 36.6752 40.8978 36.4337 41.092 36.1307C41.2861 35.8277 41.3832 35.4844 41.3832 35.1009V33.9432C41.2885 34.0047 41.1583 34.0616 40.9925 34.1136C40.8316 34.161 40.6493 34.206 40.4457 34.2486C40.2421 34.2865 40.0385 34.322 39.8349 34.3551C39.6313 34.3835 39.4466 34.4096 39.2809 34.4332C38.9258 34.4853 38.6156 34.5682 38.3505 34.6818C38.0853 34.7955 37.8794 34.9493 37.7326 35.1435C37.5858 35.3329 37.5124 35.5696 37.5124 35.8537C37.5124 36.2656 37.6616 36.5805 37.9599 36.7983C38.2629 37.0114 38.6464 37.1179 39.1104 37.1179Z" fill="#5791D1"/>
</svg>
