<svg width="67" height="40" viewBox="0 0 67 40" fill="none" xmlns="http://www.w3.org/2000/svg">
<path d="M9.15483 4.63778C9.09801 4.06487 8.85417 3.61979 8.4233 3.30256C7.99242 2.98532 7.40767 2.8267 6.66903 2.8267C6.16714 2.8267 5.74337 2.89773 5.39773 3.03977C5.05208 3.17708 4.78693 3.36884 4.60227 3.61506C4.42235 3.86127 4.33239 4.14062 4.33239 4.45312C4.32292 4.71354 4.37737 4.94081 4.49574 5.13494C4.61884 5.32907 4.78693 5.49716 5 5.6392C5.21307 5.77651 5.45928 5.89725 5.73864 6.00142C6.01799 6.10085 6.31629 6.18608 6.63352 6.2571L7.94034 6.5696C8.57481 6.71165 9.1572 6.90104 9.6875 7.13778C10.2178 7.37453 10.6771 7.66572 11.0653 8.01136C11.4536 8.35701 11.7543 8.7642 11.9673 9.23295C12.1851 9.7017 12.2964 10.2391 12.3011 10.8452C12.2964 11.7353 12.0691 12.5071 11.6193 13.1605C11.1742 13.8092 10.5303 14.3134 9.6875 14.6733C8.84943 15.0284 7.83854 15.206 6.65483 15.206C5.48059 15.206 4.45786 15.026 3.58665 14.6662C2.72017 14.3063 2.04309 13.7737 1.5554 13.0682C1.07244 12.358 0.819129 11.4796 0.795455 10.4332H3.77131C3.80445 10.9209 3.94413 11.3281 4.19034 11.6548C4.44129 11.9768 4.77509 12.2206 5.19176 12.3864C5.61316 12.5473 6.08902 12.6278 6.61932 12.6278C7.14015 12.6278 7.59233 12.5521 7.97585 12.4006C8.36411 12.2491 8.66477 12.0384 8.87784 11.7685C9.09091 11.4986 9.19744 11.1884 9.19744 10.8381C9.19744 10.5114 9.10038 10.2367 8.90625 10.0142C8.71686 9.79167 8.4375 9.60227 8.06818 9.44602C7.7036 9.28977 7.25616 9.14773 6.72585 9.01989L5.14205 8.62216C3.91572 8.32386 2.94744 7.85748 2.23722 7.22301C1.52699 6.58854 1.17424 5.7339 1.17898 4.65909C1.17424 3.77841 1.40862 3.009 1.8821 2.35085C2.36032 1.69271 3.0161 1.17898 3.84943 0.809659C4.68277 0.44034 5.62973 0.255681 6.69034 0.255681C7.76989 0.255681 8.71212 0.44034 9.51705 0.809659C10.3267 1.17898 10.9564 1.69271 11.4062 2.35085C11.8561 3.009 12.0881 3.77131 12.1023 4.63778H9.15483ZM14.3129 15V4.09091H17.1964V6.01562H17.3242C17.5515 5.37642 17.9303 4.87216 18.4606 4.50284C18.9909 4.13352 19.6254 3.94886 20.364 3.94886C21.1121 3.94886 21.7489 4.13589 22.2745 4.50994C22.8001 4.87926 23.1505 5.38116 23.3256 6.01562H23.4393C23.6618 5.39062 24.0643 4.8911 24.6467 4.51705C25.2338 4.13826 25.9274 3.94886 26.7276 3.94886C27.7456 3.94886 28.5719 4.2732 29.2063 4.92188C29.8455 5.56581 30.1651 6.47964 30.1651 7.66335V15H27.1467V8.25994C27.1467 7.65388 26.9857 7.19934 26.6637 6.89631C26.3417 6.59328 25.9393 6.44176 25.4563 6.44176C24.9071 6.44176 24.4786 6.61695 24.1708 6.96733C23.863 7.31297 23.7092 7.76989 23.7092 8.33807V15H20.7759V8.19602C20.7759 7.66098 20.622 7.23485 20.3143 6.91761C20.0112 6.60038 19.6112 6.44176 19.114 6.44176C18.7778 6.44176 18.4748 6.52699 18.2049 6.69744C17.9397 6.86316 17.729 7.09754 17.5728 7.40057C17.4165 7.69886 17.3384 8.04924 17.3384 8.4517V15H14.3129ZM35.6658 15.206C34.9698 15.206 34.3496 15.0852 33.805 14.8438C33.2605 14.5975 32.8297 14.2353 32.5124 13.7571C32.1999 13.2741 32.0437 12.6728 32.0437 11.9531C32.0437 11.3471 32.1549 10.8381 32.3775 10.4261C32.6 10.0142 32.9031 9.68277 33.2866 9.43182C33.6701 9.18087 34.1057 8.99148 34.5934 8.86364C35.0858 8.7358 35.6019 8.64583 36.1417 8.59375C36.7762 8.52746 37.2875 8.46591 37.6758 8.40909C38.064 8.34754 38.3458 8.25758 38.521 8.1392C38.6961 8.02083 38.7837 7.84564 38.7837 7.61364V7.57102C38.7837 7.12121 38.6417 6.7732 38.3576 6.52699C38.0782 6.28078 37.6805 6.15767 37.1644 6.15767C36.6199 6.15767 36.1867 6.27841 35.8647 6.51989C35.5427 6.75663 35.3297 7.05492 35.2255 7.41477L32.4272 7.1875C32.5692 6.52462 32.8486 5.9517 33.2653 5.46875C33.6819 4.98106 34.2193 4.60701 34.8775 4.34659C35.5404 4.08144 36.3074 3.94886 37.1786 3.94886C37.7847 3.94886 38.3647 4.01989 38.9187 4.16193C39.4774 4.30398 39.9722 4.52415 40.4031 4.82244C40.8387 5.12074 41.1819 5.50426 41.4329 5.97301C41.6838 6.43703 41.8093 6.99337 41.8093 7.64205V15H38.94V13.4872H38.8548C38.6796 13.8281 38.4452 14.1288 38.1516 14.3892C37.8581 14.6449 37.5053 14.8461 37.0934 14.9929C36.6815 15.1349 36.2056 15.206 35.6658 15.206ZM36.5323 13.1179C36.9774 13.1179 37.3704 13.0303 37.7113 12.8551C38.0522 12.6752 38.3197 12.4337 38.5138 12.1307C38.708 11.8277 38.805 11.4844 38.805 11.1009V9.94318C38.7103 10.0047 38.5801 10.0616 38.4144 10.1136C38.2534 10.161 38.0711 10.206 37.8675 10.2486C37.6639 10.2865 37.4603 10.322 37.2567 10.3551C37.0531 10.3835 36.8685 10.4096 36.7028 10.4332C36.3477 10.4853 36.0375 10.5682 35.7724 10.6818C35.5072 10.7955 35.3013 10.9493 35.1545 11.1435C35.0077 11.3329 34.9343 11.5696 34.9343 11.8537C34.9343 12.2656 35.0835 12.5805 35.3817 12.7983C35.6848 13.0114 36.0683 13.1179 36.5323 13.1179ZM44.1566 15V4.09091H47.0898V5.99432H47.2035C47.4023 5.31723 47.7362 4.80587 48.2049 4.46023C48.6737 4.10985 49.2134 3.93466 49.8242 3.93466C49.9757 3.93466 50.1391 3.94413 50.3143 3.96307C50.4895 3.98201 50.6433 4.00805 50.7759 4.04119V6.72585C50.6339 6.68324 50.4374 6.64536 50.1864 6.61222C49.9355 6.57907 49.7058 6.5625 49.4975 6.5625C49.0524 6.5625 48.6547 6.65956 48.3043 6.85369C47.9587 7.04309 47.6841 7.30824 47.4805 7.64915C47.2816 7.99006 47.1822 8.38305 47.1822 8.82812V15H44.1566ZM58.6896 4.09091V6.36364H52.12V4.09091H58.6896ZM53.6115 1.47727H56.6371V11.6477C56.6371 11.9271 56.6797 12.1449 56.7649 12.3011C56.8501 12.4527 56.9685 12.5592 57.12 12.6207C57.2763 12.6823 57.4562 12.7131 57.6598 12.7131C57.8018 12.7131 57.9439 12.7012 58.0859 12.6776C58.228 12.6491 58.3369 12.6278 58.4126 12.6136L58.8885 14.8651C58.737 14.9124 58.5239 14.9669 58.2493 15.0284C57.9747 15.0947 57.6409 15.1349 57.2479 15.1491C56.5187 15.1776 55.8795 15.0805 55.3303 14.858C54.7857 14.6354 54.362 14.2898 54.0589 13.821C53.7559 13.3523 53.6068 12.7604 53.6115 12.0455V1.47727ZM6.42045 39H1.2642V24.4545H6.46307C7.92614 24.4545 9.18561 24.7457 10.2415 25.3281C11.2973 25.9058 12.1094 26.7367 12.6776 27.821C13.2505 28.9053 13.5369 30.2027 13.5369 31.7131C13.5369 33.2282 13.2505 34.5303 12.6776 35.6193C12.1094 36.7083 11.2926 37.544 10.2273 38.1264C9.16667 38.7088 7.89773 39 6.42045 39ZM4.33949 36.3651H6.29261C7.2017 36.3651 7.96638 36.2041 8.58665 35.8821C9.21165 35.5554 9.6804 35.0511 9.9929 34.3693C10.3101 33.6828 10.4688 32.7973 10.4688 31.7131C10.4688 30.6383 10.3101 29.7599 9.9929 29.0781C9.6804 28.3963 9.21402 27.8944 8.59375 27.5724C7.97348 27.2505 7.20881 27.0895 6.29972 27.0895H4.33949V36.3651ZM20.7298 39.2131C19.6076 39.2131 18.6417 38.9858 17.832 38.5312C17.0271 38.072 16.4068 37.4233 15.9712 36.5852C15.5356 35.7424 15.3178 34.7457 15.3178 33.5952C15.3178 32.473 15.5356 31.4882 15.9712 30.6406C16.4068 29.7931 17.02 29.1326 17.8107 28.6591C18.6062 28.1856 19.5389 27.9489 20.609 27.9489C21.3287 27.9489 21.9987 28.0649 22.619 28.2969C23.244 28.5241 23.7885 28.8674 24.2525 29.3267C24.7212 29.786 25.0858 30.3636 25.3462 31.0597C25.6067 31.7509 25.7369 32.5606 25.7369 33.4886V34.3196H16.5252V32.4446H22.8888C22.8888 32.009 22.7942 31.6231 22.6048 31.2869C22.4154 30.9508 22.1526 30.688 21.8164 30.4986C21.485 30.3045 21.0991 30.2074 20.6587 30.2074C20.1995 30.2074 19.7923 30.3139 19.4371 30.527C19.0868 30.7353 18.8121 31.017 18.6133 31.3722C18.4144 31.7225 18.3126 32.1132 18.3079 32.544V34.3267C18.3079 34.8665 18.4073 35.3329 18.6062 35.7259C18.8098 36.1188 19.0962 36.4219 19.4656 36.6349C19.8349 36.848 20.2728 36.9545 20.7795 36.9545C21.1156 36.9545 21.4234 36.9072 21.7028 36.8125C21.9821 36.7178 22.2212 36.5758 22.4201 36.3864C22.619 36.197 22.7705 35.965 22.8746 35.6903L25.6729 35.875C25.5309 36.5473 25.2397 37.1345 24.7994 37.6364C24.3638 38.1335 23.8003 38.5218 23.109 38.8011C22.4225 39.0758 21.6294 39.2131 20.7298 39.2131ZM37.5888 28.0909L33.7749 39H30.3658L26.5518 28.0909H29.7479L32.0135 35.8963H32.1271L34.3857 28.0909H37.5888ZM39.1371 39V28.0909H42.1626V39H39.1371ZM40.657 26.6847C40.2071 26.6847 39.8213 26.5355 39.4993 26.2372C39.1821 25.9342 39.0234 25.572 39.0234 25.1506C39.0234 24.7339 39.1821 24.3764 39.4993 24.0781C39.8213 23.7751 40.2071 23.6236 40.657 23.6236C41.1068 23.6236 41.4903 23.7751 41.8075 24.0781C42.1295 24.3764 42.2905 24.7339 42.2905 25.1506C42.2905 25.572 42.1295 25.9342 41.8075 26.2372C41.4903 26.5355 41.1068 26.6847 40.657 26.6847ZM49.5153 39.2131C48.3978 39.2131 47.4367 38.9763 46.6317 38.5028C45.8316 38.0246 45.216 37.3617 44.7852 36.5142C44.359 35.6667 44.146 34.6913 44.146 33.5881C44.146 32.4706 44.3614 31.4905 44.7923 30.6477C45.2279 29.8002 45.8458 29.1397 46.646 28.6662C47.4461 28.188 48.3978 27.9489 49.5011 27.9489C50.4528 27.9489 51.2861 28.1217 52.0011 28.4673C52.716 28.813 53.2818 29.2983 53.6985 29.9233C54.1152 30.5483 54.3448 31.2822 54.3874 32.125H51.5323C51.4518 31.5805 51.2388 31.1425 50.8931 30.8111C50.5522 30.4749 50.1048 30.3068 49.5508 30.3068C49.082 30.3068 48.6725 30.4347 48.3221 30.6903C47.9764 30.9413 47.7066 31.3082 47.5124 31.7912C47.3183 32.2741 47.2212 32.8589 47.2212 33.5455C47.2212 34.2415 47.3159 34.8333 47.5053 35.321C47.6995 35.8087 47.9717 36.1804 48.3221 36.4361C48.6725 36.6918 49.082 36.8196 49.5508 36.8196C49.8964 36.8196 50.2066 36.7486 50.4812 36.6065C50.7605 36.4645 50.9902 36.2585 51.1701 35.9886C51.3548 35.714 51.4755 35.3849 51.5323 35.0014H54.3874C54.3401 35.8348 54.1128 36.5687 53.7056 37.2031C53.3031 37.8329 52.7468 38.3253 52.0366 38.6804C51.3263 39.0355 50.4859 39.2131 49.5153 39.2131ZM61.2962 39.2131C60.174 39.2131 59.2081 38.9858 58.3984 38.5312C57.5935 38.072 56.9732 37.4233 56.5376 36.5852C56.102 35.7424 55.8842 34.7457 55.8842 33.5952C55.8842 32.473 56.102 31.4882 56.5376 30.6406C56.9732 29.7931 57.5864 29.1326 58.3771 28.6591C59.1726 28.1856 60.1054 27.9489 61.1754 27.9489C61.8951 27.9489 62.5651 28.0649 63.1854 28.2969C63.8104 28.5241 64.3549 28.8674 64.8189 29.3267C65.2876 29.786 65.6522 30.3636 65.9126 31.0597C66.1731 31.7509 66.3033 32.5606 66.3033 33.4886V34.3196H57.0916V32.4446H63.4553C63.4553 32.009 63.3606 31.6231 63.1712 31.2869C62.9818 30.9508 62.719 30.688 62.3828 30.4986C62.0514 30.3045 61.6655 30.2074 61.2251 30.2074C60.7659 30.2074 60.3587 30.3139 60.0036 30.527C59.6532 30.7353 59.3786 31.017 59.1797 31.3722C58.9808 31.7225 58.879 32.1132 58.8743 32.544V34.3267C58.8743 34.8665 58.9737 35.3329 59.1726 35.7259C59.3762 36.1188 59.6626 36.4219 60.032 36.6349C60.4013 36.848 60.8393 36.9545 61.3459 36.9545C61.6821 36.9545 61.9898 36.9072 62.2692 36.8125C62.5485 36.7178 62.7876 36.5758 62.9865 36.3864C63.1854 36.197 63.3369 35.965 63.4411 35.6903L66.2393 35.875C66.0973 36.5473 65.8061 37.1345 65.3658 37.6364C64.9302 38.1335 64.3667 38.5218 63.6754 38.8011C62.9889 39.0758 62.1958 39.2131 61.2962 39.2131Z" fill="#E82327"/>
</svg>
