<svg width="111" height="111" viewBox="0 0 111 111" fill="none" xmlns="http://www.w3.org/2000/svg">
<g filter="url(#filter0_dd_1421_387)">
<path d="M12.9151 33.3973C15.9258 18.8825 25.1893 10.7982 39.6388 8.35598C50.3203 6.55101 61.0058 6.52816 71.6694 8.40666C86.5472 11.0273 95.4911 19.5831 98.3404 34.3174C100.542 45.7045 100.576 57.213 98.3058 68.5894C95.26 83.0037 85.7575 91.9013 71.3613 94.3346C60.6798 96.1393 49.9943 96.1622 39.3307 94.2839C24.4529 91.663 15.4692 82.6801 12.6202 67.946C10.3066 56.4838 10.5292 44.9025 12.9151 33.3971V33.3973Z" fill="black"/>
</g>
<path d="M12.9151 33.3973C15.9258 18.8825 25.1893 10.7982 39.6388 8.35598C50.3203 6.55101 61.0058 6.52816 71.6694 8.40666C86.5472 11.0273 95.4911 19.5831 98.3404 34.3174C100.542 45.7045 100.576 57.213 98.3058 68.5894C95.26 83.0037 85.7575 91.9013 71.3613 94.3346C60.6798 96.1393 49.9943 96.1622 39.3307 94.2839C24.4529 91.663 15.4692 82.6801 12.6202 67.946C10.3066 56.4838 10.5292 44.9025 12.9151 33.3971V33.3973Z" fill="#2C8BE2"/>
<path fill-rule="evenodd" clip-rule="evenodd" d="M55.6236 76.3151C49.4677 76.3151 43.8487 74.0805 39.5077 70.3914C42.7 64.3655 48.7253 61.949 55.6236 61.949C62.5216 61.949 68.5471 64.3657 71.7392 70.3914C67.3985 74.0805 61.7796 76.3151 55.6236 76.3151ZM55.6236 22.7023C71.4632 22.7023 84.3448 35.5841 84.3448 51.4235C84.3448 67.2633 71.4632 80.1447 55.6236 80.1447C47.4735 80.1447 40.1103 76.731 34.8787 71.262C34.9979 71.0275 36.6872 67.5897 36.6956 67.5992C40.6396 60.978 47.6399 58.1194 55.6236 58.1194C63.6073 58.1194 70.6075 60.978 74.5515 67.5992C78.2682 63.2509 80.5152 57.605 80.5152 51.4235C80.5152 37.6534 69.3934 26.5316 55.6236 26.5316C41.8537 26.5316 30.7319 37.6534 30.7319 51.4235C30.7319 54.3193 31.225 57.0974 32.1312 59.6793C30.9607 60.2235 29.8345 60.8466 28.7335 61.5155C27.5511 58.374 26.9023 54.9734 26.9023 51.4235C26.9023 35.5841 39.784 22.7023 55.6236 22.7023ZM48.2781 44.2561C48.2781 40.1644 51.6783 36.8339 55.9754 36.8339C60.272 36.8339 63.6723 40.1644 63.6723 44.2561C63.6723 48.3478 60.272 51.6783 55.9754 51.6783C51.6781 51.6783 48.2781 48.3478 48.2781 44.2561ZM66.9711 44.2561C66.9711 38.3276 62.0024 33.5351 55.9754 33.5351C49.9481 33.5351 44.9792 38.3276 44.9792 44.2561C44.9792 50.1848 49.9481 54.9772 55.9754 54.9772C62.0024 54.9772 66.9709 50.1848 66.9709 44.2561" fill="white"/>
<defs>
<filter id="filter0_dd_1421_387" x="0" y="0" width="111" height="110.69" filterUnits="userSpaceOnUse" color-interpolation-filters="sRGB">
<feFlood flood-opacity="0" result="BackgroundImageFix"/>
<feColorMatrix in="SourceAlpha" type="matrix" values="0 0 0 0 0 0 0 0 0 0 0 0 0 0 0 0 0 0 127 0" result="hardAlpha"/>
<feOffset dy="5"/>
<feGaussianBlur stdDeviation="4"/>
<feColorMatrix type="matrix" values="0 0 0 0 0 0 0 0 0 0 0 0 0 0 0 0 0 0 0.078125 0"/>
<feBlend mode="normal" in2="BackgroundImageFix" result="effect1_dropShadow_1421_387"/>
<feColorMatrix in="SourceAlpha" type="matrix" values="0 0 0 0 0 0 0 0 0 0 0 0 0 0 0 0 0 0 127 0" result="hardAlpha"/>
<feOffset dy="4"/>
<feGaussianBlur stdDeviation="5.5"/>
<feColorMatrix type="matrix" values="0 0 0 0 0 0 0 0 0 0 0 0 0 0 0 0 0 0 0.210824 0"/>
<feBlend mode="normal" in2="effect1_dropShadow_1421_387" result="effect2_dropShadow_1421_387"/>
<feBlend mode="normal" in="SourceGraphic" in2="effect2_dropShadow_1421_387" result="shape"/>
</filter>
</defs>
</svg>
